<?xml version="1.0" standalone="no"?>
<!DOCTYPE svg PUBLIC "-//W3C//DTD SVG 20010904//EN"
 "http://www.w3.org/TR/2001/REC-SVG-20010904/DTD/svg10.dtd">
<svg version="1.0" xmlns="http://www.w3.org/2000/svg"
 width="1024.000000pt" height="1536.000000pt" viewBox="0 0 1024.000000 1536.000000"
 preserveAspectRatio="xMidYMid meet">

<g transform="translate(0.000000,1536.000000) scale(0.100000,-0.100000)"
fill="#000000" stroke="none">
<path d="M0 7680 l0 -7680 5120 0 5120 0 -1 1583 c0 1329 -3 1572 -14 1522
-41 -187 -157 -385 -339 -573 -150 -156 -262 -249 -351 -291 -119 -57 -139
-60 -75 -12 115 87 256 220 348 326 235 274 327 479 339 755 8 198 -22 314
-137 528 -130 243 -390 497 -690 674 -313 186 -657 325 -1070 433 -295 78
-473 111 -850 160 -140 18 -268 38 -285 45 l-30 12 34 14 c30 13 53 12 180 -1
761 -81 1454 -269 1971 -536 193 -100 343 -199 486 -323 106 -90 132 -120 116
-129 -4 -2 -2 -2 5 -1 7 2 36 -25 66 -59 145 -167 216 -290 267 -458 l29 -94
0 5893 1 5892 -5120 0 -5120 0 0 -7680z m8670 6953 c160 -55 288 -164 350
-297 71 -151 72 -167 67 -762 -4 -584 -2 -565 -71 -711 -40 -83 -128 -183
-206 -233 l-47 -30 -72 22 c-64 21 -90 38 -58 38 28 0 119 51 163 92 76 69
131 152 161 241 l28 82 0 525 c0 579 1 569 -66 702 -51 102 -108 149 -259 218
l-55 25 -3470 3 c-3150 2 -3475 1 -3525 -14 -174 -50 -305 -180 -352 -349 -21
-78 -22 -94 -23 -605 0 -514 0 -526 22 -595 55 -174 182 -299 360 -353 54 -16
260 -17 3338 -22 3201 -5 3278 -5 3238 -24 -22 -10 -60 -31 -84 -47 l-44 -29
-3200 0 c-3560 0 -3258 -6 -3404 70 -131 68 -228 181 -293 343 l-32 82 -4 475
c-5 655 4 736 99 897 76 127 230 236 379 268 55 11 603 13 3530 12 l3465 -2
65 -22z m-3774 -413 c43 -11 103 -32 132 -47 87 -44 202 -181 202 -242 0 -16
-22 -26 -123 -60 -68 -23 -134 -41 -146 -41 -12 0 -39 18 -64 44 -65 68 -184
88 -268 46 -52 -27 -68 -60 -45 -95 22 -34 75 -56 266 -111 231 -68 336 -138
397 -269 24 -52 28 -72 27 -150 0 -79 -4 -97 -28 -145 -16 -30 -56 -82 -90
-116 -50 -50 -76 -66 -141 -91 -191 -74 -419 -67 -586 18 -73 36 -146 102
-193 173 -45 68 -52 97 -29 117 19 16 235 109 252 109 6 0 22 -17 35 -38 30
-48 89 -100 134 -119 56 -23 186 -18 240 9 82 42 94 107 28 148 -19 11 -111
40 -204 64 -104 27 -193 56 -230 76 -109 58 -189 157 -218 270 -28 108 5 231
86 323 46 52 153 111 236 131 89 22 236 20 330 -4z m-2418 -29 c144 -57 255
-187 256 -301 l1 -45 -120 -42 c-66 -23 -130 -42 -142 -42 -17 -1 -29 13 -54
60 -51 95 -125 120 -247 84 -93 -28 -153 -103 -187 -232 -41 -157 12 -339 119
-411 69 -47 177 -64 256 -42 40 11 136 90 145 120 4 11 13 20 21 20 24 0 254
-131 254 -145 0 -15 -69 -122 -103 -157 -43 -46 -140 -103 -218 -129 -65 -21
-93 -24 -219 -24 -142 0 -147 1 -220 32 -191 83 -289 193 -360 403 -47 139
-35 340 29 507 103 265 290 387 586 380 109 -2 127 -6 203 -36z m5776 10 c157
-56 266 -169 339 -352 35 -90 47 -164 47 -304 0 -133 -12 -193 -61 -311 -42
-100 -149 -216 -246 -266 -125 -65 -285 -89 -414 -63 -102 21 -166 50 -251
114 -106 80 -153 151 -199 301 -20 65 -23 95 -23 225 2 176 19 255 84 386 72
142 193 238 360 284 81 22 285 14 364 -14z m-4609 -38 c35 -102 347 -1019 387
-1140 31 -92 29 -93 -152 -93 l-147 0 -40 113 -39 112 -191 3 -191 2 -40 -112
-40 -113 -143 -3 c-79 -1 -154 0 -166 3 -39 9 -36 38 16 173 28 71 70 187 95
258 24 71 79 226 121 344 42 118 97 273 122 345 24 71 49 135 55 142 8 10 55
13 173 13 l163 0 17 -47z m2178 5 c2 -24 5 -307 6 -629 1 -496 0 -588 -12
-598 -10 -8 -60 -11 -163 -9 l-149 3 -3 625 c-1 344 0 631 3 638 3 9 44 12
159 12 l154 0 5 -42z m648 0 c12 -24 39 -68 59 -98 62 -92 147 -232 231 -382
44 -79 84 -147 88 -151 14 -14 20 98 21 383 0 151 4 278 9 283 4 4 79 6 167 5
l159 -3 0 -635 0 -635 -181 -3 -182 -2 -60 102 c-33 57 -111 185 -173 285 -63
101 -130 209 -149 240 l-35 58 -5 -330 c-3 -181 -9 -336 -13 -342 -11 -18
-278 -18 -295 -1 -9 9 -12 163 -12 633 0 342 3 625 7 628 3 4 82 7 174 7 l169
0 21 -42z m1804 -1668 c11 -13 15 -27 11 -43 -4 -16 0 -29 9 -37 13 -10 6 -17
-40 -45 -30 -19 -67 -43 -81 -54 -30 -24 -49 -18 -83 25 -37 47 -29 58 88 136
65 43 72 44 96 18z m576 -80 c11 -6 30 -28 43 -48 25 -41 57 -128 49 -135 -2
-3 -17 2 -32 11 -27 15 -32 14 -86 -6 -84 -33 -88 -31 -120 44 -33 77 -31 81
61 119 70 29 61 27 85 15z m-4751 -310 c47 -11 122 -39 168 -61 89 -43 236
-148 290 -208 96 -105 232 -305 217 -319 -2 -2 -30 12 -62 32 -258 159 -663
197 -974 91 -208 -71 -378 -199 -477 -359 -27 -44 -32 -76 -13 -76 4 0 23 21
41 46 131 183 369 316 644 360 152 25 381 15 501 -20 166 -49 299 -127 453
-265 94 -84 118 -125 61 -102 -18 7 -20 10 -6 10 27 1 12 19 -83 102 -115 100
-244 182 -290 184 -19 1 -34 6 -33 12 3 14 -101 48 -197 67 -86 16 -310 22
-310 8 0 -6 6 -10 13 -9 32 1 48 -4 42 -13 -5 -8 -11 -8 -19 -1 -7 6 -22 9
-35 6 -12 -2 -19 0 -16 5 3 4 -11 8 -30 8 -19 0 -37 -4 -40 -8 -3 -4 -14 -6
-25 -3 -28 7 -121 -17 -127 -33 -3 -8 -9 -14 -15 -14 -5 0 -7 4 -4 9 4 5 -10
4 -29 -2 -19 -6 -35 -14 -35 -19 0 -11 14 -10 26 2 5 5 20 7 32 3 19 -4 22
-11 18 -29 -4 -15 -2 -24 5 -24 7 0 9 -3 6 -6 -4 -4 -14 -1 -22 6 -13 11 -13
15 -3 22 11 6 10 10 -1 17 -19 12 -39 4 -46 -20 -4 -10 -11 -19 -17 -19 -7 0
-6 5 1 14 7 9 8 17 2 20 -5 3 -11 3 -14 -1 -2 -5 -2 -2 -1 5 5 17 -4 15 -65
-17 -42 -21 -50 -29 -36 -34 10 -4 15 -13 11 -22 -4 -11 1 -15 17 -15 13 0 17
-3 11 -8 -6 -4 -14 -14 -17 -22 -5 -13 -6 -13 -6 0 -1 9 -10 16 -22 17 -16 2
-18 -1 -9 -12 9 -11 7 -12 -11 -8 l-22 6 22 18 c20 16 21 21 8 33 -12 13 -19
11 -53 -12 -24 -16 -39 -34 -38 -45 1 -12 0 -13 -3 -2 -2 8 -9 15 -14 15 -6 0
-7 -5 -3 -12 4 -6 3 -9 -2 -6 -5 3 -15 0 -21 -8 -8 -8 -9 -15 -3 -19 6 -3 10
-11 10 -17 0 -6 -3 -8 -7 -5 -3 4 -13 1 -22 -6 -14 -11 -14 -10 -2 6 8 9 11
20 7 24 -9 10 -46 -28 -39 -41 3 -6 3 -8 -2 -4 -13 12 -99 -87 -89 -103 3 -5
-2 -21 -10 -36 -10 -19 -15 -22 -16 -11 0 9 5 20 10 23 6 3 10 12 10 18 -1 7
-9 2 -19 -11 -12 -13 -25 -20 -35 -16 -12 5 -15 2 -10 -12 6 -15 4 -17 -6 -7
-10 9 -11 15 -1 27 9 11 8 17 -4 30 -14 13 -14 16 -2 16 12 0 57 59 57 75 0
15 -28 -10 -38 -35 -16 -35 -32 -39 -32 -7 0 18 2 19 10 7 5 -8 10 -13 11 -10
0 3 3 14 5 25 3 11 6 28 8 38 3 21 36 57 36 39 0 -7 -4 -12 -8 -12 -4 0 -8
-10 -9 -22 -2 -23 -2 -23 17 2 10 14 23 25 29 25 15 0 81 75 81 92 0 8 8 13
18 11 10 -2 16 2 14 10 -1 8 2 11 7 8 5 -3 22 4 37 16 35 26 54 44 38 35 -7
-4 -17 0 -24 8 -11 14 -10 14 13 6 21 -8 35 -5 72 15 25 14 43 29 40 34 -3 4
4 6 16 3 15 -4 22 0 26 17 3 13 9 17 13 11 4 -8 27 -4 73 12 37 13 64 27 60
31 -4 3 2 5 13 4 10 -1 42 1 71 6 42 6 51 11 46 24 -5 14 -3 15 8 5 15 -15
119 -17 119 -3 0 6 -9 10 -20 10 -13 0 -18 5 -13 16 4 10 9 12 16 5 7 -7 17
-7 31 1 17 9 19 8 9 -3 -7 -7 -13 -16 -13 -20 0 -4 45 -9 100 -11 62 -2 100 1
100 7 0 6 3 6 8 -1 4 -5 55 -20 114 -31 118 -24 293 -89 346 -129 18 -15 36
-24 39 -20 12 12 -101 173 -193 275 -73 82 -235 198 -256 185 -6 -4 -8 -3 -5
3 4 6 -9 19 -29 28 -30 14 -38 15 -46 4 -8 -11 -9 -10 -4 3 4 13 -6 20 -45 33
-28 10 -68 18 -89 19 -21 0 -36 4 -33 9 2 4 -8 7 -22 7 -17 0 -24 -4 -19 -12
4 -7 3 -8 -5 -4 -6 4 -9 12 -6 17 4 5 -11 9 -32 10 -21 0 -49 3 -63 5 -31 6
-237 -24 -263 -38 -16 -8 -17 -12 -6 -19 8 -5 9 -9 4 -9 -6 0 -16 5 -22 11 -8
8 -24 5 -59 -12 -27 -12 -52 -22 -56 -21 -3 1 -11 -5 -18 -12 -9 -11 -7 -16 9
-21 19 -6 26 -23 22 -49 -1 -5 7 -6 19 -3 11 3 18 1 14 -4 -3 -5 5 -9 17 -9
21 0 21 1 6 18 -32 36 -17 59 23 36 l25 -15 -29 6 c-26 5 -28 4 -17 -9 7 -9
19 -33 27 -53 7 -21 18 -37 23 -35 6 1 11 -2 11 -8 0 -5 -4 -10 -9 -10 -6 0
-13 5 -16 10 -10 17 -28 11 -21 -6 5 -13 4 -14 -7 -6 -8 7 -17 9 -20 5 -4 -3
-7 -2 -7 4 0 6 9 13 20 16 24 6 27 37 4 37 -10 0 -14 -6 -10 -15 6 -17 4 -18
-18 -9 -9 3 -12 12 -9 22 5 13 2 12 -19 -4 -25 -19 -19 -38 9 -27 7 3 13 0 13
-7 0 -6 -4 -8 -10 -5 -5 3 -10 1 -10 -4 0 -6 5 -11 10 -11 6 0 10 -5 10 -12 0
-6 -8 -4 -19 6 -14 13 -21 14 -26 6 -4 -7 -1 -16 6 -21 10 -6 8 -9 -9 -9 -13
0 -20 -4 -17 -10 3 -5 2 -10 -3 -10 -6 0 -12 7 -16 15 -3 9 0 15 8 15 17 0 27
23 17 39 -10 15 -44 2 -37 -14 5 -15 -19 -14 -33 1 -18 19 -21 62 -6 68 9 3
15 1 14 -7 -1 -6 -1 -22 0 -35 1 -31 21 -18 21 14 0 13 5 24 11 24 6 0 9 -7 5
-15 -5 -15 14 -21 27 -8 8 7 -22 44 -32 39 -3 -2 -12 3 -20 11 -12 13 -11 14
5 9 15 -4 20 -1 21 14 2 19 0 19 -28 5 -16 -9 -29 -22 -29 -30 0 -8 -5 -15
-11 -15 -5 0 -7 6 -3 13 5 8 3 8 -9 -2 -9 -7 -14 -18 -10 -24 3 -6 1 -7 -5 -3
-10 6 -47 -14 -94 -53 -17 -13 -16 -15 8 -37 14 -13 20 -24 15 -24 -6 0 -7 -8
-4 -17 6 -16 5 -16 -11 -4 -9 8 -13 17 -8 20 12 8 -8 26 -28 26 -8 0 -14 -8
-14 -17 1 -10 2 -27 3 -37 1 -14 6 -18 23 -13 14 3 19 2 14 -7 -4 -6 -12 -9
-17 -6 -5 4 -9 1 -9 -4 0 -6 -5 -11 -11 -11 -5 0 -7 5 -4 11 4 6 -2 13 -14 16
-12 3 -21 10 -21 16 0 5 -9 2 -20 -8 -12 -10 -18 -25 -15 -32 2 -8 1 -12 -4
-9 -5 3 -14 -1 -21 -9 -11 -13 -10 -14 5 -9 13 5 16 4 11 -5 -5 -7 -14 -10
-21 -7 -10 4 -105 -102 -105 -118 0 -2 10 -2 23 0 l22 5 -23 -12 c-13 -7 -21
-18 -18 -26 4 -8 1 -11 -5 -8 -6 4 -8 13 -5 21 10 25 -1 15 -29 -28 -18 -26
-24 -43 -16 -46 6 -2 11 -8 11 -14 0 -7 -5 -6 -14 1 -19 16 -49 -36 -116 -192
-55 -132 -73 -189 -95 -312 -9 -49 -17 -94 -19 -100 -1 -5 -6 -32 -11 -58 -8
-53 -31 -85 -48 -68 -7 7 -16 7 -28 0 -15 -8 -17 -6 -13 6 4 9 3 15 -2 14 -20
-3 -24 2 -12 15 11 12 15 11 25 -8 12 -19 12 -18 7 10 -6 29 8 192 23 279 l6
39 -30 -19 c-75 -48 -276 -243 -266 -258 3 -6 2 -8 -3 -5 -5 3 -17 -5 -27 -18
-10 -13 -14 -24 -9 -24 6 0 12 7 16 15 3 8 11 15 17 15 7 0 2 -11 -11 -25 -14
-15 -26 -21 -30 -15 -5 9 -50 -40 -50 -55 0 -3 -9 -14 -20 -25 -12 -12 -18
-25 -15 -31 4 -5 1 -8 -7 -7 -8 2 -13 -6 -13 -21 0 -34 19 -36 32 -4 l12 28
-6 -30 c-8 -43 -18 -49 -41 -25 -19 21 -21 21 -30 3 -5 -10 -7 -24 -4 -31 5
-16 -17 -62 -30 -62 -5 0 -2 10 6 22 9 12 16 29 16 38 0 8 -12 -4 -26 -28 -14
-23 -22 -47 -18 -53 4 -8 9 -7 15 2 7 11 9 10 9 -3 0 -24 -17 -31 -28 -11 -8
14 -13 10 -33 -28 -47 -89 -59 -122 -54 -143 5 -15 4 -17 -3 -7 -12 16 -25 -1
-16 -22 3 -8 0 -18 -7 -23 -8 -4 -10 -3 -5 4 4 7 5 12 1 12 -14 0 -25 -53 -14
-66 7 -8 9 -17 5 -21 -3 -3 -6 -1 -6 5 0 7 -5 12 -11 12 -6 0 -9 -7 -5 -15 3
-8 1 -15 -3 -15 -12 0 -62 -150 -54 -162 3 -6 1 -13 -4 -17 -11 -7 -46 -134
-47 -173 -1 -16 -5 -28 -10 -28 -4 0 -6 -11 -4 -25 3 -13 2 -26 -2 -27 -4 -2
-10 -45 -13 -97 -17 -287 73 -572 249 -791 57 -71 107 -120 199 -195 76 -62
85 -70 60 -57 -49 25 -196 158 -255 231 -121 148 -183 270 -237 470 -23 86
-26 114 -26 271 0 169 2 180 37 318 91 350 196 575 390 832 90 119 288 319
369 374 57 37 77 45 59 24 -16 -20 -44 -315 -32 -339 6 -10 15 -19 20 -19 11
0 11 0 40 155 67 349 153 533 371 796 153 184 332 316 506 373 149 49 323 55
483 16z m-190 0 c0 -5 -4 -10 -10 -10 -5 0 -10 5 -10 10 0 6 5 10 10 10 6 0
10 -4 10 -10z m-93 -6 c-3 -3 -12 -4 -19 -1 -8 3 -5 6 6 6 11 1 17 -2 13 -5z
m60 -16 c-3 -8 -6 -5 -6 6 -1 11 2 17 5 13 3 -3 4 -12 1 -19z m98 4 c-3 -3
-11 0 -18 7 -9 10 -8 11 6 5 10 -3 15 -9 12 -12z m-265 -12 c-9 -17 -5 -22 39
-45 27 -13 52 -29 56 -35 4 -6 10 -8 15 -5 5 3 3 -9 -4 -27 -8 -18 -20 -34
-28 -37 -11 -3 -11 -1 1 12 7 10 10 17 5 17 -5 0 -3 4 5 9 12 8 13 12 1 26 -7
9 -19 14 -27 11 -8 -3 -11 -1 -8 4 3 6 1 10 -4 10 -15 0 -14 -17 4 -43 9 -15
11 -27 5 -37 -8 -13 -10 -12 -10 3 0 9 -6 17 -12 17 -10 0 -10 2 0 9 10 6 10
10 -3 21 -9 7 -14 19 -11 25 2 7 -9 22 -25 34 -33 25 -37 38 -11 44 9 3 18 5
20 6 1 0 -2 -8 -8 -19z m67 14 c-3 -3 -12 -4 -19 -1 -8 3 -5 6 6 6 11 1 17 -2
13 -5z m53 -29 c-7 -9 -15 -13 -18 -10 -3 2 1 11 8 20 7 9 15 13 18 10 3 -2
-1 -11 -8 -20z m94 1 c-6 -15 -24 -23 -24 -11 0 8 24 34 28 30 1 -1 0 -10 -4
-19z m-250 -2 c3 -8 2 -12 -4 -9 -6 3 -10 10 -10 16 0 14 7 11 14 -7z m114
-23 c-15 -5 -19 4 -11 24 6 18 7 18 13 -1 4 -10 3 -21 -2 -23z m-31 23 c-3 -3
-12 -4 -19 -1 -8 3 -5 6 6 6 11 1 17 -2 13 -5z m280 -11 c-4 -3 -2 -12 4 -19
13 -16 2 -37 -17 -30 -8 3 -14 -1 -14 -10 0 -8 -5 -12 -10 -9 -8 5 -7 11 0 20
7 8 9 20 5 27 -4 7 1 4 9 -6 9 -11 19 -16 23 -13 4 4 1 13 -5 19 -15 15 -15
28 0 28 6 0 8 -3 5 -7z m31 -18 c-3 -3 -9 2 -12 12 -6 14 -5 15 5 6 7 -7 10
-15 7 -18z m-488 5 c0 -5 -4 -10 -10 -10 -5 0 -10 5 -10 10 0 6 5 10 10 10 6
0 10 -4 10 -10z m77 -4 c0 -8 -8 -11 -19 -8 -10 2 -18 7 -18 11 0 4 8 7 18 8
10 1 19 -4 19 -11z m219 -35 c2 -36 1 -38 -15 -22 -9 9 -13 19 -9 22 5 3 6 13
2 22 -4 11 -1 17 7 17 9 0 15 -14 15 -39z m47 18 l22 -21 -27 13 c-16 7 -28
16 -28 21 0 13 9 10 33 -13z m47 -1 c0 -13 -23 -5 -28 10 -2 7 2 10 12 6 9 -3
16 -11 16 -16z m-417 -18 c-7 -25 -23 -27 -18 -2 2 9 4 18 4 20 1 1 5 2 10 2
5 0 7 -9 4 -20z m4441 -44 c3 -34 2 -62 -3 -64 -5 -2 -39 -21 -76 -43 -37 -23
-69 -38 -72 -35 -17 16 -31 185 -17 199 4 4 42 6 84 5 l77 -1 7 -61z m-4314
11 c0 -22 1 -22 21 3 11 14 18 19 14 13 -3 -7 0 -13 7 -14 7 0 2 -5 -12 -10
-33 -13 -34 -13 -42 16 -3 14 -2 23 3 19 5 -3 9 -15 9 -27z m303 18 c4 -8 2
-17 -3 -20 -6 -4 -10 3 -10 14 0 25 6 27 13 6z m-328 -5 c3 -5 2 -10 -4 -10
-5 0 -13 5 -16 10 -3 6 -2 10 4 10 5 0 13 -4 16 -10z m295 6 c0 -2 -7 -6 -15
-10 -8 -3 -15 -1 -15 4 0 6 7 10 15 10 8 0 15 -2 15 -4z m84 -11 c-4 -8 -8
-15 -10 -15 -2 0 -4 7 -4 15 0 8 4 15 10 15 5 0 7 -7 4 -15z m-100 -13 c15 8
21 7 28 -6 9 -16 11 -16 31 1 17 14 15 9 -6 -19 -15 -20 -27 -41 -27 -47 0 -5
-4 -13 -10 -16 -11 -7 -2 23 13 43 14 17 -10 34 -32 23 -23 -12 -41 -2 -41 22
1 20 2 20 13 5 10 -12 17 -14 31 -6z m306 4 c0 -2 -7 -7 -16 -10 -8 -3 -12 -2
-9 4 6 10 25 14 25 6z m1238 -3 c-16 -2 -40 -2 -55 0 -16 2 -3 4 27 4 30 0 43
-2 28 -4z m155 0 c-7 -2 -19 -2 -25 0 -7 3 -2 5 12 5 14 0 19 -2 13 -5z m-318
-27 c-89 -25 -220 -84 -311 -140 -40 -25 -49 -28 -29 -11 69 59 334 174 400
174 11 0 -16 -11 -60 -23z m372 18 c-3 -3 -12 -4 -19 -1 -8 3 -5 6 6 6 11 1
17 -2 13 -5z m-1500 -10 c-3 -3 -12 -4 -19 -1 -8 3 -5 6 6 6 11 1 17 -2 13 -5z
m-439 -22 c2 -7 -2 -10 -11 -6 -19 7 -33 -14 -18 -29 14 -14 14 -27 0 -27 -5
0 -8 4 -4 9 3 5 1 12 -5 16 -5 3 -10 2 -10 -4 0 -5 -10 -13 -22 -17 -26 -8
-42 -22 -51 -47 -5 -13 -13 -16 -26 -12 -11 3 -23 0 -27 -6 -4 -7 -3 -9 3 -6
5 3 17 -3 26 -14 10 -11 23 -17 30 -13 8 5 7 2 -2 -9 -13 -16 -15 -15 -37 8
-37 40 -54 30 -35 -19 5 -14 10 -16 15 -8 4 7 4 17 0 24 -4 7 -3 8 4 4 17 -10
15 -46 -3 -46 -8 0 -19 -9 -25 -20 -6 -11 -16 -18 -21 -14 -8 4 -8 0 0 -13 13
-26 11 -63 -6 -88 -7 -11 -13 -14 -13 -8 0 7 5 15 10 18 7 5 8 11 1 19 -6 7
-6 17 -1 26 6 9 4 20 -3 29 -6 7 -12 19 -13 25 0 6 -2 16 -2 23 -1 7 -9 10
-17 7 -8 -4 -12 -10 -9 -15 3 -5 1 -9 -5 -9 -5 0 -15 16 -22 35 -9 23 -16 32
-23 25 -7 -7 -6 -14 2 -22 7 -7 12 -17 12 -22 0 -6 -9 0 -20 14 -15 20 -21 23
-31 13 -22 -22 -33 -14 -13 9 17 19 17 21 2 15 -21 -7 -24 6 -5 21 17 14 62
19 62 7 0 -5 6 -19 12 -30 9 -15 13 -16 13 -5 1 8 6 4 11 -10 8 -20 12 -22 20
-10 7 12 10 11 15 -7 3 -12 12 -24 20 -27 18 -7 29 35 16 61 -12 23 -5 43 14
36 8 -3 14 -1 14 5 0 6 -6 12 -12 15 -7 2 -9 8 -5 13 4 5 12 2 17 -6 7 -11 11
-12 24 0 14 11 16 10 10 -5 -5 -13 -4 -16 4 -11 7 4 12 13 12 19 0 12 27 33
43 35 16 1 48 46 42 60 -3 9 2 12 17 10 12 -2 23 -9 26 -16z m82 -2 c-8 -6
-12 -10 -7 -10 4 0 9 1 11 3 2 1 13 -7 25 -17 12 -11 24 -16 28 -12 4 4 1 11
-7 16 -8 6 -10 10 -5 10 14 0 42 -19 30 -21 -5 0 -1 -5 10 -10 19 -9 18 -9 -2
-5 -17 3 -23 -1 -23 -15 0 -13 -7 -19 -24 -19 -14 0 -28 -5 -31 -10 -10 -17
-26 0 -20 21 5 15 2 18 -12 14 -10 -3 -9 -1 5 6 24 13 28 24 12 34 -8 5 -7 11
1 21 6 8 14 12 18 9 3 -3 -1 -10 -9 -15z m210 16 c0 -2 -7 -9 -15 -16 -13 -11
-14 -10 -9 4 5 14 24 23 24 12z m-660 -16 c8 -5 11 -12 7 -16 -4 -4 -2 -13 5
-21 6 -7 8 -16 4 -20 -3 -3 -6 -1 -6 5 0 7 -5 12 -11 12 -5 0 -7 -4 -4 -10 3
-5 1 -10 -5 -10 -6 0 -9 -4 -5 -9 3 -5 1 -12 -5 -16 -5 -3 -10 -11 -10 -17 0
-6 10 -3 21 8 22 19 22 19 11 -2 -6 -12 -17 -24 -25 -27 -17 -6 -21 -68 -5
-79 9 -5 5 -8 -11 -8 -16 0 -21 4 -18 14 4 10 1 13 -8 10 -8 -4 -13 -20 -12
-47 1 -35 -2 -42 -18 -44 -20 -3 -20 -3 0 6 11 5 15 10 9 10 -7 1 -11 15 -10
32 0 19 -5 34 -12 37 -11 3 -12 0 -3 -16 15 -28 14 -32 -6 -33 -12 0 -13 -2
-5 -6 9 -4 6 -14 -14 -40 -29 -39 -23 -61 7 -24 11 13 23 21 27 17 4 -4 -1
-12 -11 -17 -9 -6 -14 -15 -11 -21 4 -7 2 -8 -4 -4 -7 4 -12 2 -12 -3 0 -19
-18 -12 -25 10 -4 12 -12 18 -21 15 -8 -3 -14 1 -14 10 0 10 7 13 25 8 16 -4
25 -2 25 6 0 6 -4 9 -9 6 -5 -3 -12 1 -15 9 -4 13 -2 14 14 5 17 -9 20 -8 20
12 0 18 -2 20 -10 8 -12 -19 -16 -13 -23 30 -5 30 -4 32 5 13 6 -13 20 -23 30
-23 14 0 18 6 16 23 -2 12 0 22 3 22 4 0 16 9 28 19 12 11 21 14 21 8 0 -7 5
-12 11 -12 7 0 8 11 4 31 -5 22 -4 29 4 25 7 -4 11 1 11 13 0 12 5 21 12 21 6
0 8 3 5 6 -4 4 -13 1 -22 -6 -8 -7 -15 -8 -15 -2 0 5 11 17 25 26 25 16 34 46
15 46 -5 0 -10 5 -10 10 0 12 10 13 30 0z m265 -9 c-3 -6 -11 -11 -17 -11 -6
0 -6 6 2 15 14 17 26 13 15 -4z m559 10 c3 -5 -3 -11 -15 -14 -16 -4 -18 -3
-8 9 13 16 16 17 23 5z m-524 -10 c0 -5 -7 -11 -14 -14 -10 -4 -13 -1 -9 9 6
15 23 19 23 5z m557 -24 c1 -29 1 -30 -8 -9 -5 13 -7 28 -3 33 8 14 9 12 11
-24z m1631 4 c31 -16 66 -37 77 -45 11 -9 -16 3 -60 26 -86 45 -92 48 -81 48
3 0 32 -13 64 -29z m-1735 4 c-3 -9 -8 -14 -10 -11 -3 3 -2 9 2 15 9 16 15 13
8 -4z m-793 1 c0 -3 -4 -8 -10 -11 -5 -3 -10 -1 -10 4 0 6 5 11 10 11 6 0 10
-2 10 -4z m692 -28 c-8 -8 -9 -4 -5 13 4 13 8 18 11 10 2 -7 -1 -18 -6 -23z
m128 17 c0 -8 -4 -15 -10 -15 -5 0 -7 7 -4 15 4 8 8 15 10 15 2 0 4 -7 4 -15z
m4529 -39 c23 -30 45 -57 51 -61 5 -3 10 -11 10 -16 0 -14 -122 -140 -131
-137 -5 2 -33 32 -62 67 l-54 63 66 68 c36 38 69 69 73 69 4 1 25 -23 47 -53z
m-4708 21 c-10 -9 -11 -8 -5 6 3 10 9 15 12 12 3 -3 0 -11 -7 -18z m-211 -2
c11 -13 10 -14 -4 -9 -9 3 -16 10 -16 15 0 13 6 11 20 -6z m-347 -25 c3 -12 0
-20 -8 -20 -8 0 -11 8 -8 20 3 11 7 20 8 20 1 0 5 -9 8 -20z m335 -15 c-3 -3
-9 2 -12 12 -6 14 -5 15 5 6 7 -7 10 -15 7 -18z m606 18 c-5 -5 -12 -12 -16
-18 -4 -6 -8 -2 -8 8 0 9 7 17 17 17 9 0 12 -3 7 -7z m-684 -37 c0 -5 -3 -6
-6 -3 -4 3 -15 2 -26 -4 -19 -10 -19 -10 -2 16 13 20 19 23 25 13 5 -7 9 -17
9 -22z m20 24 c0 -5 -4 -10 -10 -10 -5 0 -10 5 -10 10 0 6 5 10 10 10 6 0 10
-4 10 -10z m240 -6 c0 -7 5 -14 12 -16 8 -3 7 -6 -3 -10 -8 -3 -21 4 -30 16
-16 20 -16 22 2 22 11 0 19 -6 19 -12z m60 -5 c0 -6 -4 -7 -10 -4 -5 3 -10 11
-10 16 0 6 5 7 10 4 6 -3 10 -11 10 -16z m239 -13 c-3 -3 -11 5 -18 17 -13 21
-12 21 5 5 10 -10 16 -20 13 -22z m-778 -19 c-8 -8 -11 -8 -11 0 0 6 -3 20 -7
30 -7 17 -6 17 11 0 14 -14 16 -21 7 -30z m60 24 c-17 -15 -18 -21 -8 -29 7
-6 13 -23 14 -39 1 -27 1 -26 -12 7 -7 19 -14 29 -14 23 -2 -23 -16 -14 -17
10 -1 15 6 27 20 34 34 17 41 15 17 -6z m666 4 c0 -8 -4 -12 -9 -9 -5 3 -6 10
-3 15 9 13 12 11 12 -6z m-103 -10 c-4 -8 -11 -15 -16 -15 -6 0 -5 6 2 15 7 8
14 15 16 15 2 0 1 -7 -2 -15z m416 11 c0 -2 -7 -6 -15 -10 -8 -3 -15 -1 -15 4
0 6 7 10 15 10 8 0 15 -2 15 -4z m-787 -33 c-5 -12 -1 -14 14 -9 12 4 25 1 33
-9 10 -12 10 -15 -4 -15 -9 0 -16 4 -16 9 0 5 -11 4 -24 -2 -15 -7 -21 -16
-16 -21 6 -6 15 -4 25 4 10 8 15 9 15 1 0 -6 -5 -11 -11 -11 -5 0 -7 -5 -3
-12 4 -7 3 -8 -5 -4 -6 4 -17 3 -24 -2 -9 -8 -13 -3 -14 19 -1 16 2 29 7 29 6
0 10 8 10 18 0 9 -4 13 -8 7 -4 -5 -14 -15 -22 -22 -13 -10 -16 -9 -16 6 0 11
6 17 13 14 7 -3 15 2 19 10 3 9 12 13 19 11 8 -3 11 -13 8 -21z m75 18 c6 -1
12 -6 12 -11 0 -7 -6 -7 -17 -2 -10 5 -23 7 -30 5 -6 -2 -14 1 -18 7 -4 6 2 8
17 6 13 -3 29 -5 36 -5z m60 -3 c10 -10 15 -10 23 2 9 13 10 12 5 -2 -4 -13 0
-18 14 -18 13 0 18 -5 14 -15 -4 -8 -14 -15 -23 -15 -14 0 -14 2 -1 10 13 9
13 10 0 11 -8 1 -21 1 -29 0 -7 -2 -10 2 -7 8 4 5 -2 14 -11 20 -10 6 -13 11
-7 11 5 0 16 -6 22 -12z m67 -6 c-3 -3 -11 0 -18 7 -9 10 -8 11 6 5 10 -3 15
-9 12 -12z m130 -2 c10 -11 13 -20 8 -20 -6 0 -16 6 -23 14 -6 8 -19 12 -28 9
-15 -4 -15 -3 -2 6 21 15 24 14 45 -9z m85 10 c0 -5 -4 -10 -10 -10 -5 0 -10
5 -10 10 0 6 5 10 10 10 6 0 10 -4 10 -10z m1891 -7 c13 -16 12 -17 -3 -4 -10
7 -18 15 -18 17 0 8 8 3 21 -13z m-1604 -25 c-3 -8 -6 -5 -6 6 -1 11 2 17 5
13 3 -3 4 -12 1 -19z m-429 -12 c-13 -30 -36 -40 -54 -25 -20 16 -17 35 5 35
13 0 17 -6 14 -21 -4 -16 -1 -15 17 8 27 34 33 35 18 3z m212 14 c0 -5 -5 -10
-11 -10 -5 0 -7 5 -4 10 3 6 8 10 11 10 2 0 4 -4 4 -10z m1926 -70 c41 -48 23
-35 -36 27 -30 31 -40 45 -22 30 18 -14 44 -40 58 -57z m-2919 48 c-3 -8 -6
-5 -6 6 -1 11 2 17 5 13 3 -3 4 -12 1 -19z m917 10 c-3 -4 -11 -5 -19 -1 -8 3
-15 -1 -15 -8 0 -7 -3 -10 -6 -6 -10 10 6 26 26 24 10 -1 17 -5 14 -9z m46 -9
c0 -5 -4 -9 -8 -9 -5 0 -9 7 -9 15 0 8 4 12 9 9 4 -3 8 -9 8 -15z m-332 -14
c-3 -3 -9 2 -12 12 -6 14 -5 15 5 6 7 -7 10 -15 7 -18z m1042 -35 c-36 -32
-69 -59 -73 -60 -4 0 22 27 60 60 37 33 70 60 73 60 3 0 -24 -27 -60 -60z
m-1075 40 c-3 -5 -1 -10 4 -10 6 0 11 -5 11 -12 0 -9 -3 -9 -12 0 -17 17 -33
15 -18 -3 7 -9 8 -15 2 -15 -18 0 -21 29 -4 39 22 13 25 13 17 1z m-567 -31
c-3 -8 -7 -3 -11 10 -4 17 -3 21 5 13 5 -5 8 -16 6 -23z m402 0 c0 -5 -4 -9
-8 -9 -5 0 -9 7 -9 15 0 8 4 12 9 9 4 -3 8 -9 8 -15z m25 11 c3 -5 1 -10 -4
-10 -6 0 -11 5 -11 10 0 6 2 10 4 10 3 0 8 -4 11 -10z m235 0 c0 -5 -2 -10 -4
-10 -3 0 -8 5 -11 10 -3 6 -1 10 4 10 6 0 11 -4 11 -10z m-482 -23 c6 0 12 -5
12 -11 0 -6 4 -5 9 3 6 9 11 10 15 2 6 -10 -5 -15 -26 -12 -4 0 -19 -14 -34
-32 -15 -17 -31 -31 -36 -29 -12 3 -10 -16 4 -24 6 -4 14 -2 16 4 2 7 10 12
18 12 7 0 12 6 10 13 -1 6 -1 9 1 5 7 -12 33 3 33 19 0 8 5 11 11 7 6 -3 14
-2 18 4 4 7 13 5 26 -5 20 -15 20 -15 -2 -10 -13 3 -23 1 -23 -3 0 -4 -13 -13
-30 -19 -16 -5 -30 -15 -30 -21 0 -6 -4 -9 -9 -6 -5 3 -12 -2 -15 -11 -5 -12
-9 -14 -18 -5 -7 7 -18 12 -26 12 -10 0 -10 -3 2 -16 9 -8 14 -20 11 -25 -9
-14 -25 -11 -25 6 0 8 -8 15 -17 15 -14 0 -13 3 6 16 17 13 20 19 10 25 -9 5
-5 10 14 14 19 5 27 14 27 29 0 16 2 18 9 7 7 -11 11 -10 20 7 8 16 7 21 -5
26 -9 3 -21 3 -26 -1 -7 -4 -8 -1 -4 6 5 7 15 9 25 5 9 -3 22 -7 29 -7z m175
2 c-6 -6 -9 -17 -6 -24 2 -8 -3 -26 -12 -42 -9 -15 -14 -21 -11 -12 2 9 -1 22
-7 28 -9 10 -9 12 3 9 10 -2 14 4 13 17 -1 11 4 23 10 27 18 11 23 10 10 -3z
m-433 -3 c0 -2 -8 -10 -17 -17 -16 -13 -17 -12 -4 4 13 16 21 21 21 13z m35
-35 c-3 -12 -11 -21 -16 -21 -6 0 -6 7 -1 18 5 9 7 24 4 32 -3 11 -2 12 8 4 7
-7 9 -21 5 -33z m148 20 c-6 -3 -12 -13 -15 -21 -3 -10 -6 -8 -10 8 -4 12 -2
20 3 16 5 -3 9 0 9 6 0 6 5 8 11 4 7 -4 7 -9 2 -13z m327 4 c10 -12 10 -15 -4
-15 -9 0 -16 7 -16 15 0 8 2 15 4 15 2 0 9 -7 16 -15z m68 -3 c-10 -2 -18 -8
-18 -13 0 -15 -17 -10 -24 7 -3 8 -2 12 4 9 6 -3 10 -2 10 3 0 6 10 7 23 4 18
-5 19 -7 5 -10z m4513 -22 c36 0 39 -2 39 -27 1 -16 3 -54 6 -87 l6 -59 -73 5
c-113 7 -143 34 -109 97 11 20 24 48 30 63 8 25 12 27 35 18 15 -6 44 -10 66
-10z m-4627 -9 c-10 -10 -21 -17 -23 -15 -6 6 20 34 32 34 6 0 2 -8 -9 -19z
m5136 15 c0 -2 -8 -10 -17 -17 -16 -13 -17 -12 -4 4 13 16 21 21 21 13z
m-5640 -10 c0 -3 -4 -8 -10 -11 -5 -3 -10 -1 -10 4 0 6 5 11 10 11 6 0 10 -2
10 -4z m3071 -51 l10 -20 -16 20 c-9 11 -21 29 -26 40 l-10 20 16 -20 c9 -11
21 -29 26 -40z m-2881 15 c0 -5 -5 -10 -11 -10 -5 0 -7 5 -4 10 3 6 8 10 11
10 2 0 4 -4 4 -10z m-150 -31 c0 -10 -30 -33 -46 -35 -8 -1 -14 4 -14 11 0 19
17 28 23 13 2 -7 8 -10 12 -5 5 4 3 13 -3 19 -19 19 -14 29 8 16 11 -7 20 -16
20 -19z m1004 12 c15 -6 16 -10 7 -16 -7 -4 -16 -3 -20 3 -3 5 -17 12 -31 15
l-25 4 25 1 c14 0 34 -3 44 -7z m-874 -22 c0 -11 -4 -18 -9 -14 -6 3 -14 -2
-19 -11 -6 -11 -12 -13 -16 -6 -6 11 21 49 37 51 4 1 7 -8 7 -20z m152 14
c-10 -4 -9 -10 4 -30 9 -14 11 -22 5 -19 -6 4 -11 1 -11 -6 0 -7 -12 -18 -26
-25 -22 -10 -24 -10 -13 3 9 11 9 18 1 26 -8 8 -16 5 -30 -12 -16 -19 -22 -21
-38 -11 -18 11 -17 12 4 6 16 -5 22 -2 22 9 0 8 9 20 19 25 15 8 22 6 34 -12
15 -21 15 -21 10 16 -5 32 -3 37 13 36 12 0 14 -3 6 -6z m516 -12 c-7 -11 -16
-18 -20 -15 -4 3 -2 11 5 19 18 21 29 18 15 -4z m-774 -69 c-3 -30 -1 -52 3
-49 4 3 9 -6 9 -19 1 -13 -2 -22 -6 -19 -5 3 -13 -3 -19 -12 -10 -17 -10 -17
-11 0 0 9 -5 17 -11 17 -6 0 -9 -6 -6 -14 6 -15 -16 -30 -27 -19 -10 10 -7 35
3 29 5 -3 14 1 21 10 11 12 15 12 22 2 6 -9 8 -1 7 22 -1 19 2 43 6 54 6 13 3
21 -9 28 -13 7 -14 13 -5 30 17 33 29 3 23 -60z m1021 68 c-3 -5 -12 -10 -18
-10 -7 0 -6 4 3 10 19 12 23 12 15 0z m35 1 c0 -6 -4 -13 -10 -16 -5 -3 -10 1
-10 9 0 9 5 16 10 16 6 0 10 -4 10 -9z m-402 -12 c-19 -11 -24 -44 -9 -53 5
-3 11 1 15 9 3 8 0 15 -6 15 -6 0 -9 3 -5 6 13 14 27 -7 17 -27 -8 -14 -7 -19
1 -19 7 0 10 -2 7 -5 -2 -3 -16 1 -31 8 -21 10 -25 17 -20 37 6 25 20 40 38
40 6 -1 2 -5 -7 -11z m492 -4 c0 -8 -2 -15 -4 -15 -2 0 -6 7 -10 15 -3 8 -1
15 4 15 6 0 10 -7 10 -15z m-414 -11 c10 -8 14 -13 7 -10 -6 4 -14 2 -18 -4
-8 -13 -25 -13 -25 1 0 5 5 7 10 4 6 -3 10 -2 10 4 0 5 -6 12 -12 14 -7 3 -8
6 -2 6 5 1 19 -6 30 -15z m64 12 c0 -3 -4 -8 -10 -11 -5 -3 -10 -1 -10 4 0 6
5 11 10 11 6 0 10 -2 10 -4z m70 -10 c0 -2 -7 -6 -15 -10 -8 -3 -15 -1 -15 4
0 6 7 10 15 10 8 0 15 -2 15 -4z m834 -76 c5 -20 3 -19 -8 5 -7 17 -16 41 -20
55 -5 20 -3 19 8 -5 7 -16 16 -41 20 -55z m-1643 53 c27 -16 29 -16 49 2 15
14 21 15 18 5 -2 -8 -7 -19 -12 -25 -10 -12 -56 -16 -56 -5 0 5 -9 12 -20 15
-11 3 -20 11 -20 16 0 13 8 11 41 -8z m749 8 c0 -15 -32 -23 -44 -11 -8 8 -6
9 5 5 10 -4 20 -2 24 4 8 13 15 14 15 2z m-910 -25 c0 -2 -8 -7 -17 -10 -10
-4 -14 -4 -10 0 4 4 1 14 -6 22 -10 13 -9 14 11 3 12 -6 22 -13 22 -15z m76
13 c3 -6 1 -16 -6 -22 -10 -9 -12 -8 -7 6 4 11 1 17 -8 17 -8 0 -15 -5 -15
-11 0 -5 -4 -7 -10 -4 -5 3 -10 10 -10 16 0 13 47 11 56 -2z m794 -48 c0 -7
-8 -3 -19 10 -11 13 -17 28 -14 32 6 10 32 -23 33 -42z m70 31 c0 -4 -9 -8
-20 -9 -16 -1 -17 1 -7 12 12 13 27 11 27 -3z m1508 11 c-10 -2 -28 -2 -40 0
-13 2 -5 4 17 4 22 1 32 -1 23 -4z m249 1 c-3 -3 -12 -4 -19 -1 -8 3 -5 6 6 6
11 1 17 -2 13 -5z m-1887 -18 c0 -31 -50 -60 -64 -37 -4 5 2 7 12 4 10 -2 25
3 32 12 12 14 12 18 -1 26 -11 7 -11 9 4 9 9 0 17 -6 17 -14z m1553 7 c-7 -2
-21 -2 -30 0 -10 3 -4 5 12 5 17 0 24 -2 18 -5z m430 0 c-7 -2 -19 -2 -25 0
-7 3 -2 5 12 5 14 0 19 -2 13 -5z m-2646 -22 c-1 -16 -5 -18 -19 -10 -10 5
-18 12 -18 15 0 3 4 3 9 -1 5 -3 12 -1 16 5 9 15 14 12 12 -9z m103 14 c0 -2
-10 -10 -22 -16 -21 -11 -22 -11 -9 4 13 16 31 23 31 12z m2057 -1 c-3 -3 -12
-4 -19 -1 -8 3 -5 6 6 6 11 1 17 -2 13 -5z m546 -1 c-7 -2 -19 -2 -25 0 -7 3
-2 5 12 5 14 0 19 -2 13 -5z m-2253 -23 c-12 -8 -12 -10 4 -10 11 0 17 -3 13
-6 -8 -8 -47 5 -47 16 0 9 32 19 40 13 2 -2 -2 -8 -10 -13z m1663 13 c-7 -2
-19 -2 -25 0 -7 3 -2 5 12 5 14 0 19 -2 13 -5z m-2199 -18 c3 -8 1 -15 -3 -15
-5 0 -11 7 -15 15 -3 8 -1 15 3 15 5 0 11 -7 15 -15z m119 8 c3 -5 -1 -14 -9
-21 -12 -11 -14 -9 -14 8 0 20 14 27 23 13z m102 -2 c3 -5 2 -12 -3 -15 -5 -3
-9 1 -9 9 0 17 3 19 12 6z m391 -39 c-12 -11 -18 7 -10 30 l8 23 4 -23 c2 -13
1 -26 -2 -30z m160 23 c1 -14 -2 -25 -7 -25 -5 0 -9 11 -9 25 0 33 15 33 16 0z
m1377 18 c-7 -2 -19 -2 -25 0 -7 3 -2 5 12 5 14 0 19 -2 13 -5z m-2266 -30 c1
-24 1 -25 -7 -8 -11 26 -12 35 -2 35 4 0 8 -12 9 -27z m73 23 c0 -3 -4 -8 -10
-11 -5 -3 -10 -1 -10 4 0 6 5 11 10 11 6 0 10 -2 10 -4z m1185 -6 c-3 -5 -12
-10 -18 -10 -7 0 -6 4 3 10 19 12 23 12 15 0z m-975 -10 c0 -5 5 -10 11 -10 5
0 7 5 3 12 -5 7 -3 8 5 3 18 -10 -2 -27 -22 -19 -18 7 -23 24 -7 24 6 0 10 -4
10 -10z m498 -2 c-2 -6 -13 -12 -24 -14 -19 -3 -19 -3 0 12 24 17 29 18 24 2z
m662 8 c0 -3 -4 -8 -10 -11 -5 -3 -10 -1 -10 4 0 6 5 11 10 11 6 0 10 -2 10
-4z m100 0 c0 -3 -4 -8 -10 -11 -5 -3 -10 -1 -10 4 0 6 5 11 10 11 6 0 10 -2
10 -4z m1527 -2 c-3 -3 -12 -4 -19 -1 -8 3 -5 6 6 6 11 1 17 -2 13 -5z m2088
-4 c13 -6 15 -9 5 -9 -8 0 -22 4 -30 9 -18 12 -2 12 25 0z m-4625 -10 c0 -5
-2 -10 -4 -10 -3 0 -8 5 -11 10 -3 6 -1 10 4 10 6 0 11 -4 11 -10z m390 0 c0
-5 -2 -10 -4 -10 -3 0 -8 5 -11 10 -3 6 -1 10 4 10 6 0 11 -4 11 -10z m58 -15
c-3 -3 -9 2 -12 12 -6 14 -5 15 5 6 7 -7 10 -15 7 -18z m209 10 c0 -8 -4 -12
-9 -9 -4 3 -8 9 -8 15 0 5 4 9 8 9 5 0 9 -7 9 -15z m-1221 -38 c-2 -7 -5 -4
-5 6 -1 9 -6 17 -12 17 -6 0 -9 -7 -6 -14 4 -10 1 -13 -9 -9 -19 7 -18 20 3
32 20 11 38 -10 29 -32z m82 31 c-2 -7 2 -12 8 -11 9 2 9 -4 1 -21 -6 -13 -17
-21 -24 -19 -8 3 -13 -3 -13 -14 0 -24 -19 -43 -36 -36 -8 3 -14 0 -14 -7 0
-10 -3 -10 -15 0 -8 7 -15 18 -15 24 0 6 4 5 9 -3 8 -12 12 -12 25 -2 12 10
16 10 16 2 0 -7 5 -9 11 -6 6 4 8 13 5 21 -3 7 5 21 17 30 14 10 18 18 10 21
-7 2 -9 11 -6 19 6 17 24 19 21 2z m789 0 c-2 -7 3 -22 12 -32 15 -18 15 -18
-7 -7 -12 7 -28 9 -34 5 -7 -5 -8 -2 -3 7 12 21 27 39 32 39 3 0 3 -6 0 -12z
m287 3 c4 -5 -3 -7 -14 -4 -23 6 -26 13 -6 13 8 0 17 -4 20 -9z m756 -11 c6
-11 8 -20 6 -20 -3 0 -10 9 -16 20 -6 11 -8 20 -6 20 3 0 10 -9 16 -20z m748
13 c-10 -2 -26 -2 -35 0 -10 3 -2 5 17 5 19 0 27 -2 18 -5z m2579 1 c-3 -3
-12 -4 -19 -1 -8 3 -5 6 6 6 11 1 17 -2 13 -5z m-4510 -24 c1 -11 -1 -22 -5
-24 -4 -2 -8 7 -8 20 -1 13 1 24 5 24 4 0 7 -9 8 -20z m1378 10 c-27 -12 -43
-12 -25 0 8 5 22 9 30 9 10 0 8 -3 -5 -9z m433 3 c-16 -2 -40 -2 -55 0 -16 2
-3 4 27 4 30 0 43 -2 28 -4z m295 0 c-7 -2 -21 -2 -30 0 -10 3 -4 5 12 5 17 0
24 -2 18 -5z m-2543 -38 c0 -2 -11 0 -25 5 -24 9 -29 6 -26 -13 1 -5 -3 -6 -8
-3 -5 3 -7 15 -4 26 5 18 7 18 34 4 16 -8 29 -17 29 -19z m30 31 c0 -3 -4 -8
-10 -11 -5 -3 -10 -1 -10 4 0 6 5 11 10 11 6 0 10 -2 10 -4z m340 -6 c0 -5 -8
-10 -17 -10 -15 0 -16 2 -3 10 19 12 20 12 20 0z m130 -10 c-6 -11 -15 -20
-20 -20 -14 0 -12 6 6 24 21 22 27 20 14 -4z m137 -2 c-3 -8 -6 -5 -6 6 -1 11
2 17 5 13 3 -3 4 -12 1 -19z m333 7 c-7 -8 -17 -12 -23 -8 -6 4 -3 9 9 14 27
11 28 11 14 -6z m1183 8 c-7 -2 -21 -2 -30 0 -10 3 -4 5 12 5 17 0 24 -2 18
-5z m460 0 c-7 -2 -21 -2 -30 0 -10 3 -4 5 12 5 17 0 24 -2 18 -5z m-2868 -13
c-3 -5 -12 -10 -18 -10 -7 0 -6 4 3 10 19 12 23 12 15 0z m1550 -8 c-3 -3 -11
0 -18 7 -9 10 -8 11 6 5 10 -3 15 -9 12 -12z m775 8 c-14 -4 -34 -8 -45 -8
-16 0 -15 2 5 8 14 4 34 8 45 8 16 0 15 -2 -5 -8z m593 3 c-7 -2 -19 -2 -25 0
-7 3 -2 5 12 5 14 0 19 -2 13 -5z m-2253 -22 c14 -28 12 -38 -3 -16 -8 10 -19
15 -25 11 -8 -5 -10 -2 -6 8 8 21 21 20 34 -3z m50 4 c0 -8 -4 -15 -10 -15 -5
0 -7 7 -4 15 4 8 8 15 10 15 2 0 4 -7 4 -15z m630 -5 c0 -5 -5 -10 -11 -10 -5
0 -7 5 -4 10 3 6 8 10 11 10 2 0 4 -4 4 -10z m630 6 c0 -2 -7 -7 -16 -10 -8
-3 -12 -2 -9 4 6 10 25 14 25 6z m1260 -6 c0 -5 -2 -10 -4 -10 -3 0 -8 5 -11
10 -3 6 -1 10 4 10 6 0 11 -4 11 -10z m-3270 -16 c0 -8 -6 -11 -15 -8 -8 4
-15 9 -15 13 0 4 7 8 15 8 8 0 15 -6 15 -13z m168 -18 c-10 -7 -14 -17 -10
-21 4 -5 1 -5 -7 0 -12 7 -12 10 1 19 8 6 13 18 10 26 -4 12 -2 13 9 2 12 -11
11 -15 -3 -26z m426 18 c5 -14 4 -15 -9 -4 -17 14 -19 20 -6 20 5 0 12 -7 15
-16z m1653 10 c-3 -3 -12 -4 -19 -1 -8 3 -5 6 6 6 11 1 17 -2 13 -5z m-1692
-14 c3 -5 -1 -10 -10 -10 -9 0 -13 5 -10 10 3 6 8 10 10 10 2 0 7 -4 10 -10z
m80 4 c13 -5 14 -8 3 -15 -19 -12 -25 -11 -25 6 0 17 0 17 22 9z m175 -9 c0
-8 -2 -15 -4 -15 -2 0 -6 7 -10 15 -3 8 -1 15 4 15 6 0 10 -7 10 -15z m48 -10
c-3 -3 -9 2 -12 12 -6 14 -5 15 5 6 7 -7 10 -15 7 -18z m342 15 c0 -5 -5 -10
-11 -10 -5 0 -7 5 -4 10 3 6 8 10 11 10 2 0 4 -4 4 -10z m767 4 c-3 -3 -12 -4
-19 -1 -8 3 -5 6 6 6 11 1 17 -2 13 -5z m228 -4 c-11 -5 -27 -9 -35 -9 -13 -1
-13 0 0 9 8 5 24 9 35 9 l20 0 -20 -9z m-2092 -30 c-6 -22 -5 -24 10 -11 11 8
17 9 17 3 0 -6 -13 -21 -30 -34 -16 -12 -30 -28 -30 -36 0 -12 -3 -12 -15 -2
-14 11 -12 15 15 28 16 8 30 18 30 23 0 14 -38 11 -42 -3 -3 -7 -7 -5 -11 6
-4 9 -3 15 1 12 4 -2 16 2 27 10 17 13 17 14 1 14 -9 0 -15 4 -12 8 2 4 14 8
25 8 17 0 19 -5 14 -26z m567 10 c-7 -14 -7 -20 0 -20 5 0 10 -5 10 -12 0 -8
-5 -7 -15 3 -16 16 -11 49 6 49 6 0 5 -9 -1 -20z m2480 10 c8 -5 11 -10 5 -10
-5 0 -17 5 -25 10 -8 5 -10 10 -5 10 6 0 17 -5 25 -10z m-2577 -35 c-20 -27
-35 -33 -27 -10 4 8 10 15 15 15 5 0 9 7 9 16 0 8 5 12 10 9 6 -4 3 -16 -7
-30z m217 10 c14 -19 14 -19 -4 -5 -15 12 -20 12 -23 2 -3 -6 -9 -9 -14 -6 -6
3 -2 12 8 19 10 7 18 13 18 12 1 -1 7 -11 15 -22z m280 3 c0 -6 -6 -5 -15 2
-8 7 -15 14 -15 16 0 2 7 1 15 -2 8 -4 15 -11 15 -16z m74 8 c-3 -9 -13 -12
-27 -8 -21 6 -21 6 3 13 14 4 26 7 27 8 1 1 0 -5 -3 -13z m277 -10 c170 -4
201 -6 247 -20 9 -3 31 -7 47 -10 43 -7 206 -59 201 -64 -3 -2 -42 8 -88 21
-165 50 -242 61 -433 61 -194 1 -273 -11 -435 -61 -110 -35 -274 -119 -360
-184 -81 -62 -147 -136 -132 -151 13 -13 56 9 157 81 236 169 468 240 783 241
72 0 132 -3 132 -7 0 -5 -64 -8 -142 -8 -258 0 -399 -30 -590 -126 -78 -39
-186 -110 -221 -145 -15 -15 -27 -24 -27 -20 0 3 -18 -3 -41 -14 -32 -17 -44
-19 -55 -9 -22 18 -18 26 40 88 49 51 53 58 38 69 -15 11 -14 11 4 2 18 -8 30
-4 65 22 24 18 77 51 116 73 40 23 70 45 66 49 -4 4 1 4 11 0 15 -6 17 -4 11
6 -5 9 -4 11 3 6 15 -9 163 44 156 55 -3 5 2 6 10 3 20 -8 118 15 111 26 -3 5
4 6 15 3 11 -3 32 -2 47 2 21 5 24 8 12 16 -12 7 -11 9 4 9 9 0 17 -4 17 -10
0 -5 10 -10 23 -9 12 0 16 3 9 6 -6 2 -9 9 -6 15 4 7 9 6 13 -1 5 -7 72 -12
192 -15z m709 14 c-8 -5 -22 -9 -30 -9 -10 0 -8 3 5 9 27 12 43 12 25 0z
m-1925 -10 c-3 -5 -11 -10 -16 -10 -6 0 -7 5 -4 10 3 6 11 10 16 10 6 0 7 -4
4 -10z m272 -38 c-3 -12 -5 -10 -6 7 -1 17 -5 22 -17 17 -14 -6 -15 -4 -4 9
12 15 14 15 22 0 5 -8 7 -23 5 -33z m-568 -5 c1 -4 -5 -2 -13 5 -7 7 -11 19
-8 27 4 11 7 10 13 -5 4 -10 8 -23 8 -27z m731 10 c0 -5 -4 -5 -10 -2 -5 3
-10 14 -10 23 0 15 2 15 10 2 5 -8 10 -19 10 -23z m1425 23 c-27 -12 -43 -12
-25 0 8 5 22 9 30 9 10 0 8 -3 -5 -9z m-1342 -20 c-3 -11 0 -20 6 -20 6 0 11
4 11 10 0 5 7 7 15 3 12 -4 10 -9 -11 -19 -34 -18 -34 -18 -35 9 0 12 -3 16
-6 10 -2 -7 -10 -13 -16 -13 -7 1 -1 10 12 20 29 25 30 25 24 0z m137 16 c0
-3 -4 -8 -10 -11 -5 -3 -10 -1 -10 4 0 6 5 11 10 11 6 0 10 -2 10 -4z m-848
-28 c-9 -9 -15 -9 -24 1 -11 10 -10 11 5 6 10 -5 17 -2 17 6 0 7 3 9 7 6 4 -4
1 -13 -5 -19z m2019 5 c13 -16 12 -17 -3 -4 -10 7 -18 15 -18 17 0 8 8 3 21
-13z m-1841 -2 c0 -6 -5 -13 -12 -17 -6 -4 -8 -3 -4 4 3 5 0 13 -6 15 -8 3 -6
6 5 6 9 1 17 -3 17 -8z m215 -1 c3 -6 -1 -7 -9 -4 -18 7 -21 14 -7 14 6 0 13
-4 16 -10z m457 -12 c-7 -7 -12 -8 -12 -2 0 14 12 26 19 19 2 -3 -1 -11 -7
-17z m-736 -18 c1 -17 -4 -30 -11 -30 -13 0 -14 28 -1 48 10 17 11 16 12 -18z
m42 -16 c-4 -3 -12 5 -18 18 -12 22 -12 22 6 6 10 -10 15 -20 12 -24z m362 26
c0 -5 -4 -10 -10 -10 -5 0 -10 5 -10 10 0 6 5 10 10 10 6 0 10 -4 10 -10z m76
-5 c-6 -17 4 -20 22 -5 7 5 6 2 -2 -7 -13 -14 -18 -14 -31 -3 -13 11 -13 15
-3 21 18 12 21 11 14 -6z m65 -8 c-13 -13 -26 -3 -16 12 3 6 11 8 17 5 6 -4 6
-10 -1 -17z m-753 -14 c16 -35 15 -47 -2 -31 -8 7 -12 16 -9 21 2 4 0 7 -5 7
-5 0 -9 7 -9 15 0 23 11 18 25 -12z m120 7 c7 -12 10 -31 6 -46 -6 -24 -5 -26
17 -19 13 3 19 3 14 -2 -6 -4 -18 -16 -27 -26 -16 -16 -17 -14 -15 35 2 47 -1
54 -23 65 -22 11 -23 13 -5 13 11 0 26 -9 33 -20z m392 10 c0 -5 -2 -10 -4
-10 -3 0 -8 5 -11 10 -3 6 -1 10 4 10 6 0 11 -4 11 -10z m1630 -25 c0 -5 -5
-3 -10 5 -5 8 -10 20 -10 25 0 6 5 3 10 -5 5 -8 10 -19 10 -25z m-2080 15 c0
-5 -2 -10 -4 -10 -3 0 -8 5 -11 10 -3 6 -1 10 4 10 6 0 11 -4 11 -10z m469
-16 c-6 -8 -15 -12 -18 -8 -3 4 0 9 7 11 6 3 9 10 6 15 -4 7 -2 8 5 4 9 -6 9
-11 0 -22z m114 6 c-3 -11 -7 -20 -9 -20 -2 0 -4 9 -4 20 0 11 4 20 9 20 5 0
7 -9 4 -20z m-482 -21 c-5 -13 -10 -19 -10 -12 -1 15 10 45 15 40 3 -2 0 -15
-5 -28z m120 1 c6 0 7 -5 3 -11 -8 -14 -24 8 -23 31 1 11 3 10 6 -2 2 -10 9
-18 14 -18z m528 -4 c-3 -3 -11 5 -18 17 -13 21 -12 21 5 5 10 -10 16 -20 13
-22z m-209 8 c0 -8 -5 -12 -10 -9 -6 4 -8 11 -5 16 9 14 15 11 15 -7z m244 -9
c-9 -14 -18 -25 -20 -25 -7 0 10 35 20 42 17 12 17 9 0 -17z m2174 18 c-10 -2
-26 -2 -35 0 -10 3 -2 5 17 5 19 0 27 -2 18 -5z m55 0 c-7 -2 -19 -2 -25 0 -7
3 -2 5 12 5 14 0 19 -2 13 -5z m-3019 -11 c3 -5 -1 -9 -9 -9 -8 0 -12 4 -9 9
3 4 7 8 9 8 2 0 6 -4 9 -8z m480 -14 c-17 -19 -17 -21 -1 -15 20 8 47 -1 47
-15 0 -6 -6 -5 -15 2 -8 6 -19 9 -25 5 -21 -13 -32 7 -14 26 9 10 19 19 22 19
3 0 -3 -10 -14 -22z m151 12 c3 -5 1 -10 -4 -10 -6 0 -11 5 -11 10 0 6 2 10 4
10 3 0 8 -4 11 -10z m41 -6 c-9 -8 -16 -20 -16 -26 0 -6 -3 -9 -6 -6 -8 9 14
48 27 48 6 0 3 -7 -5 -16z m1034 -3 c47 -11 96 -24 110 -30 l25 -12 -25 6
c-14 4 -74 17 -135 30 -60 13 -99 24 -85 24 14 0 63 -8 110 -18z m1143 12 c-7
-2 -19 -2 -25 0 -7 3 -2 5 12 5 14 0 19 -2 13 -5z m-2697 -19 c-5 -12 -1 -14
15 -9 15 5 19 4 15 -4 -10 -15 -27 -13 -51 6 -16 13 -17 15 -2 10 9 -4 17 -2
17 3 0 6 3 10 6 10 3 0 3 -7 0 -16z m288 -16 c7 -5 4 -8 -6 -8 -12 0 -18 7
-17 23 0 15 2 17 6 7 3 -8 11 -18 17 -22z m2323 16 c-3 -3 -12 -4 -19 -1 -8 3
-5 6 6 6 11 1 17 -2 13 -5z m-2733 -10 c9 -3 16 -11 16 -17 0 -7 -4 -7 -12 1
-14 14 -32 16 -24 3 4 -5 1 -11 -5 -13 -5 -2 -7 -11 -4 -21 4 -9 12 -14 19
-10 6 4 5 -1 -3 -10 -8 -10 -14 -27 -15 -39 0 -12 -8 -23 -16 -25 -12 -4 -13
-3 -1 5 7 5 11 14 8 19 -3 5 -2 15 3 23 6 10 3 21 -7 32 -15 17 -15 20 2 38
21 23 18 22 39 14z m721 -12 c-3 -3 -11 0 -18 7 -9 10 -8 11 6 5 10 -3 15 -9
12 -12z m-835 -13 c0 -6 -4 -7 -10 -4 -5 3 -10 11 -10 16 0 6 5 7 10 4 6 -3
10 -11 10 -16z m2757 15 c-3 -3 -12 -4 -19 -1 -8 3 -5 6 6 6 11 1 17 -2 13 -5z
m-1967 -8 c0 -3 -4 -8 -10 -11 -5 -3 -10 -1 -10 4 0 6 5 11 10 11 6 0 10 -2
10 -4z m1927 -2 c-3 -3 -12 -4 -19 -1 -8 3 -5 6 6 6 11 1 17 -2 13 -5z m-2687
-24 c0 -13 -6 -20 -17 -19 -10 0 -13 3 -6 5 7 3 9 12 6 20 -3 8 0 14 6 14 6 0
11 -9 11 -20z m180 14 c0 -2 -9 -8 -20 -14 -15 -8 -18 -8 -14 3 4 11 34 21 34
11z m50 -9 c-14 -17 -30 -20 -30 -4 0 5 4 8 9 4 5 -3 12 -1 16 5 3 5 9 10 12
10 3 0 0 -7 -7 -15z m1758 -17 c24 -11 42 -21 40 -24 -3 -2 -34 9 -69 26 -68
33 -44 31 29 -2z m647 22 c-27 -12 -43 -12 -25 0 8 5 22 9 30 9 10 0 8 -3 -5
-9z m-2365 -11 c0 -5 -4 -7 -10 -4 -5 3 -10 1 -10 -6 0 -7 -3 -10 -6 -6 -8 7
4 27 17 27 5 0 9 -5 9 -11z m120 1 c0 -5 -7 -10 -16 -10 -8 0 -12 5 -9 10 3 6
10 10 16 10 5 0 9 -4 9 -10z m130 -10 c-7 -4 -16 -13 -20 -20 -5 -8 -8 -4 -7
12 2 19 6 24 20 20 13 -3 15 -7 7 -12z m1710 -47 l65 -67 -61 54 c-52 46 -82
80 -71 80 1 0 32 -30 67 -67z m863 60 c-13 -2 -35 -2 -50 0 -16 2 -5 4 22 4
28 0 40 -2 28 -4z m-2506 -10 c-9 -2 -14 -9 -11 -15 4 -7 2 -8 -5 -4 -15 10
-4 26 17 25 15 -1 15 -2 -1 -6z m2371 0 c-10 -2 -28 -2 -40 0 -13 2 -5 4 17 4
22 1 32 -1 23 -4z m255 0 c-7 -2 -21 -2 -30 0 -10 3 -4 5 12 5 17 0 24 -2 18
-5z m-3308 -13 c3 -5 1 -10 -4 -10 -6 0 -11 5 -11 10 0 6 2 10 4 10 3 0 8 -4
11 -10z m40 -8 c-3 -3 -11 0 -18 7 -9 10 -8 11 6 5 10 -3 15 -9 12 -12z m375
8 c0 -5 -2 -10 -4 -10 -3 0 -8 5 -11 10 -3 6 -1 10 4 10 6 0 11 -4 11 -10z
m80 -5 c-7 -9 -15 -13 -19 -10 -3 3 1 10 9 15 21 14 24 12 10 -5z m1075 4
c-164 -8 -259 -29 -464 -100 -129 -44 -171 -67 -286 -152 -126 -94 -182 -116
-241 -97 -19 7 -34 16 -34 21 0 5 14 2 31 -7 27 -13 38 -14 75 -4 47 13 114
54 184 111 71 58 169 107 302 150 207 68 305 87 453 86 l130 0 -150 -8z m1055
-9 c-19 -11 -39 -19 -45 -19 -5 0 6 8 25 19 19 11 40 19 45 19 6 0 -6 -8 -25
-19z m333 13 c-7 -2 -19 -2 -25 0 -7 3 -2 5 12 5 14 0 19 -2 13 -5z m410 0
c-7 -2 -19 -2 -25 0 -7 3 -2 5 12 5 14 0 19 -2 13 -5z m-3166 -29 c-9 -9 -28
6 -21 18 4 6 10 6 17 -1 6 -6 8 -13 4 -17z m53 10 c0 -8 -4 -12 -10 -9 -5 3
-10 10 -10 16 0 5 5 9 10 9 6 0 10 -7 10 -16z m100 1 c-6 -8 -9 -19 -5 -25 10
-17 -1 -11 -20 10 -15 17 -16 20 -3 15 9 -4 19 -2 23 4 3 6 9 11 12 11 3 0 0
-7 -7 -15z m215 -4 c-3 -6 -11 -11 -16 -11 -5 0 -4 6 3 14 14 16 24 13 13 -3z
m1192 13 c-3 -3 -12 -4 -19 -1 -8 3 -5 6 6 6 11 1 17 -2 13 -5z m56 -1 c-7 -2
-21 -2 -30 0 -10 3 -4 5 12 5 17 0 24 -2 18 -5z m1096 3 c-2 -2 -17 -6 -34
-10 -22 -5 -26 -4 -15 4 14 9 59 15 49 6z m508 -2 c-3 -3 -12 -4 -19 -1 -8 3
-5 6 6 6 11 1 17 -2 13 -5z m-3352 -25 c-10 -15 -25 -10 -19 6 4 8 10 12 15 9
5 -3 7 -10 4 -15z m560 11 c-3 -5 -11 -10 -16 -10 -6 0 -7 5 -4 10 3 6 11 10
16 10 6 0 7 -4 4 -10z m1268 3 c-7 -2 -21 -2 -30 0 -10 3 -4 5 12 5 17 0 24
-2 18 -5z m-1596 -9 c-3 -3 -12 -4 -19 -1 -8 3 -5 6 6 6 11 1 17 -2 13 -5z
m160 -16 c2 -17 0 -19 -7 -8 -5 8 -6 18 -4 22 8 12 10 10 11 -14z m48 3 c-3
-6 -11 -8 -17 -5 -6 4 -5 9 3 15 16 10 23 4 14 -10z m1494 3 c76 -22 59 -25
-24 -4 -38 11 -61 19 -49 19 11 1 44 -6 73 -15z m237 -49 c33 -24 67 -51 74
-61 8 -9 -16 6 -53 35 -38 28 -81 58 -98 66 -16 9 -29 18 -29 21 0 8 41 -16
106 -61z m-2236 41 c0 -8 -7 -16 -15 -20 -13 -4 -14 -2 -5 14 13 23 20 26 20
6z m182 -17 c-20 -24 -20 -24 -18 4 1 17 6 23 18 19 15 -4 15 -5 0 -23z m158
-17 c0 -13 -3 -12 -15 4 -19 25 -19 40 0 24 8 -7 15 -20 15 -28z m90 25 c0 -5
-7 -7 -15 -3 -21 8 -45 -3 -45 -20 0 -8 -5 -14 -11 -14 -10 0 -5 13 14 37 10
14 57 14 57 0z m3155 3 c13 -5 14 -9 5 -9 -8 0 -24 4 -35 9 -13 5 -14 9 -5 9
8 0 24 -4 35 -9z m-1065 -5 c0 -2 -13 -11 -30 -20 -38 -19 -40 -11 -2 9 31 17
32 18 32 11z m200 -5 c-8 -5 -19 -10 -25 -10 -5 0 -3 5 5 10 8 5 20 10 25 10
6 0 3 -5 -5 -10z m920 -10 c8 -5 11 -10 5 -10 -5 0 -17 5 -25 10 -8 5 -10 10
-5 10 6 0 17 -5 25 -10z m-3180 -4 c0 -2 -7 -7 -16 -10 -8 -3 -12 -2 -9 4 6
10 25 14 25 6z m1655 -6 c3 -6 -1 -7 -9 -4 -18 7 -21 14 -7 14 6 0 13 -4 16
-10z m555 0 c-8 -5 -19 -10 -25 -10 -5 0 -3 5 5 10 8 5 20 10 25 10 6 0 3 -5
-5 -10z m-2130 -4 c0 -2 -7 -7 -16 -10 -8 -3 -12 -2 -9 4 6 10 25 14 25 6z
m1302 -11 c178 -31 371 -120 470 -216 109 -106 148 -248 98 -357 -46 -101
-201 -220 -343 -263 -37 -12 -70 -19 -73 -16 -3 3 10 17 30 32 99 76 149 235
112 359 -48 159 -272 276 -469 245 -189 -29 -313 -165 -325 -355 -6 -111 11
-156 84 -224 31 -27 51 -50 46 -50 -5 0 -44 9 -88 20 -199 51 -346 130 -497
267 -95 86 -144 119 -214 145 -32 12 -74 33 -93 47 l-35 26 75 6 c89 7 135 29
265 124 150 110 287 167 492 205 125 23 348 26 465 5z m1385 8 c-20 -2 -52 -2
-70 0 -17 2 0 4 38 4 39 0 53 -2 32 -4z m70 1 c-3 -3 -12 -4 -19 -1 -8 3 -5 6
6 6 11 1 17 -2 13 -5z m393 -4 c8 -5 11 -10 5 -10 -5 0 -17 5 -25 10 -8 5 -10
10 -5 10 6 0 17 -5 25 -10z m-3540 -10 c0 -5 -2 -10 -4 -10 -3 0 -8 5 -11 10
-3 6 -1 10 4 10 6 0 11 -4 11 -10z m28 -4 c-7 -8 -15 -12 -17 -11 -5 6 10 25
20 25 5 0 4 -6 -3 -14z m82 4 c10 -6 11 -10 3 -10 -7 0 -13 -7 -13 -15 0 -9
-6 -12 -16 -8 -11 4 -12 8 -4 13 7 4 9 13 6 19 -9 14 4 14 24 1z m2370 5 c0
-5 -69 -35 -79 -34 -5 0 68 38 77 39 1 0 2 -2 2 -5z m468 -2 c-10 -2 -28 -2
-40 0 -13 2 -5 4 17 4 22 1 32 -1 23 -4z m319 1 c-3 -3 -12 -4 -19 -1 -8 3 -5
6 6 6 11 1 17 -2 13 -5z m-3427 -39 c0 -5 -5 -3 -10 5 -5 8 -10 20 -10 25 0 6
5 3 10 -5 5 -8 10 -19 10 -25z m334 26 c3 -5 -1 -11 -9 -14 -9 -4 -12 -1 -8 9
6 16 10 17 17 5z m76 5 c0 -11 -19 -15 -25 -6 -3 5 1 10 9 10 9 0 16 -2 16 -4z
m1860 -57 l25 -21 -25 16 c-14 9 -42 25 -62 36 -21 11 -38 23 -38 25 0 9 73
-32 100 -56z m1213 54 c-7 -2 -21 -2 -30 0 -10 3 -4 5 12 5 17 0 24 -2 18 -5z
m295 -17 c26 -13 56 -32 68 -42 11 -11 14 -15 7 -11 -6 5 -40 24 -75 43 -72
38 -72 46 0 10z m-805 7 c-7 -2 -19 -2 -25 0 -7 3 -2 5 12 5 14 0 19 -2 13 -5z
m554 1 c-3 -3 -12 -4 -19 -1 -8 3 -5 6 6 6 11 1 17 -2 13 -5z m-3002 -14 c3
-5 1 -10 -4 -10 -6 0 -11 5 -11 10 0 6 2 10 4 10 3 0 8 -4 11 -10z m3042 4
c-3 -3 -12 -4 -19 -1 -8 3 -5 6 6 6 11 1 17 -2 13 -5z m-3527 -14 c0 -5 -7 -7
-15 -4 -8 4 -15 8 -15 10 0 2 7 4 15 4 8 0 15 -4 15 -10z m105 0 c-3 -5 -11
-10 -16 -10 -6 0 -7 5 -4 10 3 6 11 10 16 10 6 0 7 -4 4 -10z m318 -4 c4 -10
1 -13 -8 -9 -8 3 -12 9 -9 14 7 12 11 11 17 -5z m37 10 c0 -3 -4 -8 -10 -11
-5 -3 -10 -1 -10 4 0 6 5 11 10 11 6 0 10 -2 10 -4z m2050 -1 c0 -2 -13 -11
-30 -20 -38 -19 -40 -11 -2 9 31 17 32 18 32 11z m335 -5 c-11 -5 -27 -9 -35
-9 -9 0 -8 4 5 9 11 5 27 9 35 9 9 0 8 -4 -5 -9z m-3124 -17 c13 -16 12 -17
-3 -4 -10 7 -18 15 -18 17 0 8 8 3 21 -13z m262 -18 c-7 -21 -12 -19 -10 4 0
11 5 18 9 15 4 -3 5 -11 1 -19z m-33 -1 c0 -8 -4 -12 -10 -9 -5 3 -10 10 -10
16 0 5 5 9 10 9 6 0 10 -7 10 -16z m195 9 c-11 -3 -23 -10 -27 -17 -5 -7 -8
-5 -8 7 0 12 7 17 28 16 21 -1 22 -2 7 -6z m265 -3 c0 -5 -10 -10 -22 -9 -22
0 -22 1 -3 9 11 5 21 9 23 9 1 1 2 -3 2 -9z m43 -21 c-9 -9 -12 -7 -10 9 1 14
5 18 11 12 7 -7 6 -14 -1 -21z m-756 15 c-3 -3 -12 -4 -19 -1 -8 3 -5 6 6 6
11 1 17 -2 13 -5z m2730 -19 c-7 -13 -14 -20 -15 -14 -2 5 2 16 8 24 18 21 20
18 7 -10z m1008 -4 c241 -51 467 -187 534 -323 43 -85 44 -174 3 -239 -58 -90
-156 -148 -371 -215 l-73 -23 56 59 c77 81 101 135 101 230 -1 96 -27 154
-106 231 -73 72 -139 99 -264 106 -76 4 -99 2 -147 -17 -90 -34 -169 -99 -207
-170 -68 -127 -48 -295 46 -400 52 -58 49 -60 -75 -34 -172 35 -387 125 -466
194 -33 29 -34 32 -20 59 33 67 40 195 18 317 -6 30 -3 33 68 77 126 79 253
124 453 163 95 18 331 11 450 -15z m-3655 9 c0 -5 -2 -10 -4 -10 -3 0 -8 5
-11 10 -3 6 -1 10 4 10 6 0 11 -4 11 -10z m720 2 c0 -4 -10 -13 -22 -21 -23
-14 -23 -14 -4 8 20 22 26 25 26 13z m3200 -2 c8 -5 11 -10 5 -10 -5 0 -17 5
-25 10 -8 5 -10 10 -5 10 6 0 17 -5 25 -10z m-3470 -10 c0 -5 -5 -10 -11 -10
-5 0 -7 5 -4 10 3 6 8 10 11 10 2 0 4 -4 4 -10z m2090 -11 c0 -5 -4 -9 -8 -9
-5 0 -9 7 -9 15 0 8 4 12 9 9 4 -3 8 -9 8 -15z m-2296 -4 c3 -8 1 -15 -4 -15
-6 0 -10 7 -10 15 0 8 2 15 4 15 2 0 6 -7 10 -15z m2626 5 c-8 -5 -19 -10 -25
-10 -5 0 -3 5 5 10 8 5 20 10 25 10 6 0 3 -5 -5 -10z m-2910 -10 c12 -7 10 -9
-8 -7 -12 0 -22 5 -22 9 0 11 12 10 30 -2z m470 -21 c0 -6 -4 -7 -10 -4 -5 3
-10 11 -10 16 0 6 5 7 10 4 6 -3 10 -11 10 -16z m2390 11 c-8 -5 -19 -10 -25
-10 -5 0 -3 5 5 10 8 5 20 10 25 10 6 0 3 -5 -5 -10z m-2985 -44 c-17 -25 -16
-26 9 -36 14 -5 26 -12 26 -15 0 -4 -4 -3 -10 0 -5 3 -10 -1 -10 -9 0 -23 -20
-30 -38 -12 -9 9 -11 16 -5 16 6 0 13 -6 16 -12 2 -7 7 -10 11 -6 11 9 -13 50
-24 43 -6 -3 -17 -2 -25 3 -14 7 -13 11 5 27 11 10 20 13 20 7 0 -7 -4 -12
-10 -12 -5 0 -10 -4 -10 -10 0 -22 20 -8 36 27 10 20 20 31 22 25 2 -6 -4 -22
-13 -36z m455 29 c-7 -9 -15 -13 -19 -10 -3 3 1 10 9 15 21 14 24 12 10 -5z
m404 0 c3 -8 1 -15 -4 -15 -6 0 -10 7 -10 15 0 8 2 15 4 15 2 0 6 -7 10 -15z
m1953 -17 c-3 -7 -5 -2 -5 12 0 14 2 19 5 13 2 -7 2 -19 0 -25z m-2712 12 c3
-5 -3 -10 -14 -10 -12 0 -21 5 -21 10 0 6 6 10 14 10 8 0 18 -4 21 -10z m312
-12 c-3 -8 -6 -5 -6 6 -1 11 2 17 5 13 3 -3 4 -12 1 -19z m64 -1 c-10 -9 -11
-8 -5 6 3 10 9 15 12 12 3 -3 0 -11 -7 -18z m2449 9 c0 -4 -99 -66 -106 -66
-2 0 -4 10 -3 23 0 20 1 20 8 3 5 -14 10 -16 15 -8 9 14 86 58 86 48z m-2845
-26 c-3 -5 -11 -10 -16 -10 -6 0 -7 5 -4 10 3 6 11 10 16 10 6 0 7 -4 4 -10z
m-17 -26 c2 -1 -1 -5 -7 -8 -5 -4 -15 4 -22 16 -12 22 -11 22 7 8 10 -8 20
-15 22 -16z m710 7 c-7 -11 -16 -18 -20 -15 -4 3 -2 11 5 19 18 21 29 18 15
-4z m72 -1 c0 -5 -5 -10 -11 -10 -5 0 -7 5 -4 10 3 6 8 10 11 10 2 0 4 -4 4
-10z m5493 -34 c28 -50 26 -53 -40 -91 -27 -16 -35 -17 -65 -5 -37 15 -88 58
-88 75 0 22 83 65 126 65 40 0 44 -3 67 -44z m-6030 20 c4 -10 1 -13 -8 -9 -8
3 -12 9 -9 14 7 12 11 11 17 -5z m317 0 c-7 -7 -13 -7 -20 0 -6 6 -3 10 10 10
13 0 16 -4 10 -10z m80 -8 c0 -18 -2 -20 -9 -8 -6 8 -7 18 -5 22 9 14 14 9 14
-14z m-120 7 c0 -7 -30 -13 -34 -7 -3 4 4 9 15 9 10 1 19 0 19 -2z m-182 -28
c14 5 15 3 5 -7 -10 -11 -15 -11 -28 0 -8 7 -15 18 -15 24 0 6 5 3 11 -6 6
-11 16 -15 27 -11z m336 7 c3 -8 2 -12 -4 -9 -6 3 -10 10 -10 16 0 14 7 11 14
-7z m127 2 c-47 -26 -63 -84 -37 -134 21 -41 47 -61 112 -83 82 -29 138 -63
208 -128 106 -98 263 -208 344 -240 18 -8 31 -16 28 -18 -7 -8 -117 49 -193
101 -38 25 -108 82 -155 125 -94 87 -147 121 -223 146 -106 36 -153 90 -141
164 6 38 41 81 65 81 11 -1 8 -5 -8 -14z m-911 -16 c0 -11 -2 -20 -4 -20 -2 0
-6 9 -9 20 -3 11 -1 20 4 20 5 0 9 -9 9 -20z m148 1 c-7 -9 -13 -18 -15 -20
-1 -2 -1 5 0 16 0 11 7 20 14 20 10 0 10 -4 1 -16z m-50 2 c-10 -2 -18 -9 -18
-15 0 -6 -3 -9 -6 -5 -10 10 6 27 24 26 15 -1 15 -2 0 -6z m492 3 c0 -3 -4 -8
-10 -11 -5 -3 -10 -1 -10 4 0 6 5 11 10 11 6 0 10 -2 10 -4z m-396 -57 c-2 -4
5 -9 16 -12 11 -3 20 -10 20 -17 0 -18 -40 14 -56 45 -20 38 -17 45 5 15 11
-13 18 -27 15 -31z m-209 21 c19 -8 19 -9 -2 -9 -13 -1 -23 -7 -23 -15 0 -23
-16 -27 -17 -5 -1 10 3 19 8 19 6 0 7 5 4 10 -7 12 2 12 30 0z m357 1 c8 11 9
11 6 1 -4 -16 -22 -18 -24 -3 -2 8 -1 7 3 0 4 -8 8 -7 15 2z m-317 -10 c3 -5
1 -12 -5 -16 -5 -3 -10 1 -10 9 0 18 6 21 15 7z m72 -15 c-5 -15 -37 -20 -50
-7 -7 7 -2 8 14 4 21 -6 22 -4 11 9 -11 14 -10 16 8 11 11 -3 19 -11 17 -17z
m68 -8 c-1 -13 -8 -23 -16 -23 -8 0 -17 -9 -21 -20 -5 -16 -6 -15 -7 9 -1 21
3 27 14 22 14 -5 21 11 16 37 -1 5 2 6 7 3 5 -3 8 -15 7 -28z m-31 14 c3 -5
-1 -9 -9 -9 -8 0 -12 4 -9 9 3 4 7 8 9 8 2 0 6 -4 9 -8z m113 -14 c-3 -8 -6
-5 -6 6 -1 11 2 17 5 13 3 -3 4 -12 1 -19z m-252 -8 c-3 -4 1 -11 7 -13 8 -4
7 -6 -4 -6 -9 -1 -20 4 -23 9 -3 6 -1 10 5 10 6 0 8 5 4 12 -4 7 -3 8 5 4 6
-4 9 -11 6 -16z m325 16 c0 -2 -7 -7 -16 -10 -8 -3 -12 -2 -9 4 6 10 25 14 25
6z m164 -11 c3 -8 1 -15 -4 -15 -6 0 -10 7 -10 15 0 8 2 15 4 15 2 0 6 -7 10
-15z m-424 -28 c10 3 11 2 4 -4 -6 -4 -13 -15 -16 -23 -3 -9 -9 -1 -16 20 -9
28 -9 32 1 19 6 -9 19 -14 27 -12z m44 8 c-7 -16 -24 -21 -24 -6 0 8 7 13 27
20 1 1 0 -6 -3 -14z m90 -11 c3 -8 2 -12 -4 -9 -6 3 -10 10 -10 16 0 14 7 11
14 -7z m196 6 c8 -5 11 -10 5 -10 -5 0 -17 5 -25 10 -8 5 -10 10 -5 10 6 0 17
-5 25 -10z m-37 -15 c4 -8 3 -16 -1 -19 -4 -3 -9 4 -9 15 -2 23 3 25 10 4z
m-469 -11 c3 -8 2 -12 -4 -9 -6 3 -10 10 -10 16 0 14 7 11 14 -7z m102 1 c3 8
10 15 15 15 16 0 10 -15 -12 -29 -19 -11 -24 -10 -43 10 l-21 22 28 -17 c24
-15 28 -15 33 -1z m185 -2 c7 -10 9 -15 5 -11 -5 4 -15 3 -23 -3 -10 -9 -13
-8 -13 3 0 13 9 28 15 28 2 0 9 -8 16 -17z m-251 -3 c0 -5 -5 -10 -11 -10 -5
0 -7 5 -4 10 3 6 8 10 11 10 2 0 4 -4 4 -10z m480 0 c0 -5 -5 -10 -11 -10 -5
0 -7 5 -4 10 3 6 8 10 11 10 2 0 4 -4 4 -10z m6617 -12 c33 -36 103 -140 103
-153 0 -16 -72 -39 -96 -31 -10 3 -29 21 -41 39 -12 17 -36 49 -53 69 l-31 37
33 17 c18 9 37 23 41 30 11 19 20 18 44 -8z m-6933 -38 c-6 -5 -24 21 -24 34
0 6 6 1 14 -10 8 -10 12 -21 10 -24z m-131 17 c4 3 7 1 7 -5 0 -7 -9 -12 -20
-12 -12 0 -20 7 -20 16 0 13 3 14 13 5 8 -6 17 -8 20 -4z m162 -5 c-3 -3 -11
0 -18 7 -9 10 -8 11 6 5 10 -3 15 -9 12 -12z m-205 -2 c0 -5 -2 -10 -4 -10 -3
0 -8 5 -11 10 -3 6 -1 10 4 10 6 0 11 -4 11 -10z m107 -36 c-12 -13 -24 -20
-27 -17 -3 2 4 12 16 22 11 9 19 23 17 31 -4 13 -3 13 5 1 8 -11 5 -21 -11
-37z m203 0 c0 -3 -7 -1 -15 6 -8 7 -15 17 -15 22 0 5 7 3 15 -6 8 -8 15 -18
15 -22z m-97 7 c4 -17 2 -18 -14 -8 -13 8 -15 13 -6 19 7 4 13 8 13 8 1 0 4
-9 7 -19z m-154 -7 c-30 -17 -39 -17 -39 -1 0 7 14 12 31 13 32 1 32 1 8 -12z
m-52 -28 c-2 -6 7 -21 20 -33 l24 -23 -28 0 c-20 0 -24 -3 -14 -9 8 -5 9 -11
3 -15 -5 -3 -12 1 -16 9 -3 8 -1 17 4 20 11 7 2 35 -12 35 -5 0 -6 -5 -2 -12
5 -7 3 -8 -6 -3 -11 7 -11 10 2 19 15 9 15 11 0 22 -15 12 -14 12 6 7 13 -3
21 -11 19 -17z m61 -22 c2 -1 -4 -4 -12 -7 -8 -3 -16 2 -19 14 -5 17 -3 18 11
7 9 -7 18 -13 20 -14z m149 20 c-3 -3 -12 -4 -19 -1 -8 3 -5 6 6 6 11 1 17 -2
13 -5z m-270 -15 c9 -9 4 -18 -18 -36 -16 -14 -26 -30 -22 -35 3 -7 1 -8 -5
-4 -7 4 -12 2 -12 -5 0 -7 -3 -9 -6 -6 -4 4 -1 14 6 23 12 13 11 17 0 24 -9 6
-17 5 -22 -3 -4 -6 -9 -9 -12 -6 -8 8 32 49 47 49 7 0 6 -4 -3 -10 -11 -7 -12
-12 -3 -21 9 -9 16 -8 28 5 9 9 12 16 6 16 -6 0 -11 5 -11 10 0 13 13 13 27
-1z m311 -23 c-7 -8 -15 -12 -17 -11 -5 6 10 25 20 25 5 0 4 -6 -3 -14z m2141
-22 c26 -22 31 -33 31 -69 0 -62 -33 -100 -89 -100 -107 0 -152 136 -61 182
41 21 85 16 119 -13z m-2424 7 c-3 -5 -1 -12 5 -16 15 -9 12 -25 -5 -25 -9 0
-12 6 -8 17 4 11 3 14 -5 9 -7 -4 -12 -3 -12 3 0 5 6 12 13 14 18 8 19 8 12
-2z m105 5 c0 -3 -4 -8 -10 -11 -5 -3 -10 -1 -10 4 0 6 5 11 10 11 6 0 10 -2
10 -4z m58 -31 c-3 -3 -9 2 -12 12 -6 14 -5 15 5 6 7 -7 10 -15 7 -18z m-198
0 c0 -8 -4 -15 -10 -15 -5 0 -7 7 -4 15 4 8 8 15 10 15 2 0 4 -7 4 -15z m-80
-10 c-7 -8 -9 -15 -4 -15 5 0 2 -4 -6 -10 -8 -5 -11 -12 -7 -16 3 -4 12 -2 19
3 7 6 36 13 63 16 28 2 42 3 33 0 -18 -5 -14 -33 5 -33 6 0 7 3 4 7 -4 3 1 12
11 19 25 19 38 17 19 -3 -8 -10 -16 -21 -16 -25 -1 -5 -4 -8 -7 -7 -4 0 -10
-4 -13 -9 -3 -5 -17 -12 -31 -16 l-25 -7 22 17 c25 18 20 44 -8 44 -11 0 -16
-5 -13 -14 3 -7 -2 -16 -10 -19 -9 -4 -16 -11 -16 -17 0 -6 5 -8 10 -5 6 3 10
1 10 -4 0 -13 -10 -14 -29 -2 -7 5 -10 14 -7 20 4 6 0 14 -9 17 -22 9 -29 -1
-16 -25 6 -11 7 -22 2 -25 -5 -3 -14 8 -21 25 -8 19 -18 28 -27 25 -8 -3 -11
-1 -8 5 4 5 14 7 24 4 13 -4 20 4 30 30 7 19 17 35 23 35 6 0 6 -6 -2 -15z
m374 7 c2 -4 -10 -8 -27 -9 -30 -1 -30 -1 -7 7 14 4 26 8 27 9 1 1 4 -3 7 -7z
m3737 -41 c46 -58 -2 -151 -77 -151 -46 0 -94 45 -94 88 0 57 66 106 128 94
12 -2 32 -16 43 -31z m-4160 6 c-13 -13 -26 -3 -16 12 3 6 11 8 17 5 6 -4 6
-10 -1 -17z m284 13 c-3 -5 -14 -10 -23 -9 -14 0 -13 2 3 9 27 11 27 11 20 0z
m60 0 c3 -5 2 -10 -4 -10 -5 0 -13 5 -16 10 -3 6 -2 10 4 10 5 0 13 -4 16 -10z
m124 -13 c0 -9 -2 -8 -6 1 -2 6 -10 9 -15 6 -7 -4 -8 -2 -4 5 9 13 26 5 25
-12z m-162 -13 c-3 -3 -12 -4 -19 -1 -8 3 -5 6 6 6 11 1 17 -2 13 -5z m73 2
c0 -3 -4 -8 -10 -11 -5 -3 -10 -1 -10 4 0 6 5 11 10 11 6 0 10 -2 10 -4z
m-145 -25 c-3 -5 -1 -12 5 -16 5 -3 10 -14 10 -23 0 -15 -1 -15 -16 0 -15 15
-14 48 1 48 4 0 4 -4 0 -9z m53 -16 c-3 -3 -9 2 -12 12 -6 14 -5 15 5 6 7 -7
10 -15 7 -18z m35 -6 c-9 -9 -12 -7 -10 9 1 14 5 18 11 12 7 -7 6 -14 -1 -21z
m-338 1 c-3 -5 -13 -10 -21 -10 -8 0 -14 5 -14 10 0 6 9 10 21 10 11 0 17 -4
14 -10z m213 -14 c-7 -8 -15 -12 -17 -11 -5 6 10 25 20 25 5 0 4 -6 -3 -14z
m6402 -63 l52 -76 -24 -19 c-12 -10 -40 -30 -61 -45 l-38 -26 -46 44 c-55 54
-90 123 -73 145 7 8 18 14 25 14 7 0 32 9 56 20 24 11 47 20 50 20 4 0 30 -35
59 -77z m-6593 37 c0 -36 -10 -39 -25 -6 -9 21 -8 25 6 29 9 3 17 5 18 6 0 0
1 -12 1 -29z m-57 -1 c-6 -11 -9 -25 -7 -32 3 -7 10 -1 16 13 10 23 11 23 7 3
-3 -18 0 -23 17 -23 29 0 51 15 43 29 -4 6 0 11 8 11 9 0 16 4 16 10 0 5 8 6
17 3 11 -4 13 -8 5 -11 -7 -2 -10 -7 -7 -12 3 -5 -4 -11 -15 -15 -12 -4 -17
-11 -14 -18 4 -7 4 -9 0 -5 -4 3 -21 2 -38 -4 -24 -8 -32 -8 -39 3 -7 12 -9
11 -9 -1 -1 -8 -8 -2 -16 13 -12 22 -13 31 -3 43 18 21 31 17 19 -7z m344 -5
c5 -14 4 -15 -9 -4 -17 14 -19 20 -6 20 5 0 12 -7 15 -16z m1220 -67 c64 -45
154 -102 201 -126 47 -25 83 -46 81 -49 -9 -8 -203 104 -292 170 -52 38 -107
74 -122 78 -22 7 -23 8 -6 9 12 1 74 -36 138 -82z m-1304 31 c0 -4 -9 0 -20 9
-11 10 -20 21 -20 25 0 4 9 0 20 -9 11 -10 20 -21 20 -25z m1164 -17 c11 -13
57 -51 101 -84 90 -68 109 -84 80 -69 -72 37 -215 165 -214 190 0 14 2 14 6 2
3 -8 15 -26 27 -39z m-1267 33 c-3 -3 -12 -4 -19 -1 -8 3 -5 6 6 6 11 1 17 -2
13 -5z m153 -8 c0 -3 -4 -8 -10 -11 -5 -3 -10 -1 -10 4 0 6 5 11 10 11 6 0 10
-2 10 -4z m-173 -12 c-3 -3 -12 -4 -19 -1 -8 3 -5 6 6 6 11 1 17 -2 13 -5z
m-128 -29 c7 3 8 0 5 -9 -3 -9 -12 -12 -22 -8 -15 5 -15 4 -3 -11 11 -15 11
-17 -2 -17 -19 0 -28 -34 -13 -51 8 -10 6 -9 -7 0 -18 14 -19 41 -3 53 14 10
18 51 4 42 -7 -4 -8 -3 -4 5 6 9 11 9 21 1 8 -7 19 -9 24 -5z m57 3 c4 -7 3
-8 -4 -4 -6 3 -16 -3 -22 -15 -7 -11 -14 -18 -17 -15 -5 5 24 46 33 46 2 0 6
-5 10 -12z m38 -4 c5 -14 4 -15 -9 -4 -17 14 -19 20 -6 20 5 0 12 -7 15 -16z
m36 6 c0 -5 -2 -10 -4 -10 -3 0 -8 5 -11 10 -3 6 -1 10 4 10 6 0 11 -4 11 -10z
m210 -22 c0 -6 -6 -5 -15 2 -8 7 -15 14 -15 16 0 2 7 1 15 -2 8 -4 15 -11 15
-16z m2845 12 c3 -5 1 -10 -4 -10 -6 0 -11 5 -11 10 0 6 2 10 4 10 3 0 8 -4
11 -10z m-3002 -42 c-9 -10 -21 -14 -27 -10 -7 4 -5 8 7 10 10 2 17 13 17 25
0 18 2 19 10 7 6 -10 4 -20 -7 -32z m-107 17 c-6 -18 5 -20 21 -4 8 8 16 8 30
0 16 -11 16 -11 -4 -6 -27 8 -30 -3 -5 -21 11 -9 13 -13 4 -14 -7 0 -11 -4 -7
-10 3 -5 13 -7 23 -4 14 5 14 4 3 -4 -18 -13 -44 -3 -37 14 3 9 -8 20 -32 30
-33 14 -35 17 -17 24 28 12 28 12 21 -5z m84 5 c0 -5 -2 -10 -4 -10 -3 0 -8 5
-11 10 -3 6 -1 10 4 10 6 0 11 -4 11 -10z m83 -17 c-5 -12 -7 -12 -14 -1 -13
20 -11 28 5 22 8 -3 12 -12 9 -21z m2807 23 c0 -3 -15 -14 -32 -26 l-33 -22
30 26 c31 27 35 29 35 22z m220 -42 c0 -2 -9 0 -20 6 -11 6 -20 13 -20 16 0 2
9 0 20 -6 11 -6 20 -13 20 -16z m-2990 12 c0 -3 -4 -8 -10 -11 -5 -3 -10 -1
-10 4 0 6 5 11 10 11 6 0 10 -2 10 -4z m-230 -18 c0 -5 5 -6 10 -3 6 3 10 1
10 -4 0 -14 -17 -14 -25 -1 -4 6 -9 9 -13 6 -4 -2 -16 0 -27 4 -16 6 -13 8 13
7 17 0 32 -4 32 -9z m254 -3 c-4 -8 -8 -15 -10 -15 -2 0 -4 7 -4 15 0 8 4 15
10 15 5 0 7 -7 4 -15z m116 -5 c0 -5 -4 -10 -10 -10 -5 0 -10 5 -10 10 0 6 5
10 10 10 6 0 10 -4 10 -10z m-407 -17 c15 6 42 -15 32 -25 -3 -2 -1 -19 4 -36
6 -20 6 -32 0 -32 -5 0 -10 6 -10 13 -1 6 -2 17 -4 22 -1 6 -3 16 -3 23 -1 7
-13 17 -27 22 -14 5 -25 15 -25 22 0 10 3 9 9 -1 5 -8 16 -11 24 -8z m1967
-10 c30 -11 31 -12 6 -8 -16 4 -43 13 -60 20 -23 11 -25 13 -6 8 14 -3 41 -12
60 -20z m1062 0 c-11 -16 -37 -44 -58 -63 -25 -24 -20 -15 17 27 58 67 72 79
41 36z m-2769 -3 c-3 -11 -7 -20 -9 -20 -2 0 -4 9 -4 20 0 11 4 20 9 20 5 0 7
-9 4 -20z m-330 -2 c7 -7 12 -31 12 -52 0 -26 5 -41 15 -44 13 -5 13 -3 1 11
-7 10 -9 17 -3 17 16 0 22 -26 9 -40 -9 -10 -7 -11 13 -6 14 3 20 3 13 0 -7
-3 -9 -13 -6 -22 4 -15 3 -15 -6 -2 -9 13 -11 13 -11 -2 0 -10 -4 -18 -10 -18
-5 0 -7 7 -4 15 4 8 -1 26 -10 40 -9 13 -16 31 -16 40 0 8 -6 15 -12 15 -8 1
-6 6 4 14 21 16 14 26 -13 19 -11 -3 -18 -11 -15 -19 3 -8 0 -11 -10 -7 -10 4
-12 9 -4 18 5 6 7 15 3 19 -4 4 0 4 10 0 10 -3 17 -1 17 5 0 14 9 14 23 -1z
m148 -61 c-8 -8 -11 -5 -11 14 0 19 -2 21 -10 9 -8 -13 -8 8 0 50 0 3 8 -10
17 -28 12 -25 13 -36 4 -45z m149 57 c0 -2 -7 -4 -15 -4 -8 0 -15 4 -15 10 0
5 7 7 15 4 8 -4 15 -8 15 -10z m2670 6 c-8 -5 -19 -10 -25 -10 -5 0 -3 5 5 10
8 5 20 10 25 10 6 0 3 -5 -5 -10z m-2725 -10 c-3 -5 -1 -10 6 -10 7 0 10 -2 8
-5 -3 -2 -16 -1 -29 2 -22 6 -23 7 -4 14 26 10 26 10 19 -1z m182 4 c-3 -3
-12 -4 -19 -1 -8 3 -5 6 6 6 11 1 17 -2 13 -5z m3018 -12 c-3 -3 -11 0 -18 7
-9 10 -8 11 6 5 10 -3 15 -9 12 -12z m-3385 -9 c0 5 5 5 11 1 8 -4 7 -9 -2
-15 -13 -8 -29 6 -29 26 0 6 5 3 10 -5 5 -8 10 -11 10 -7z m2065 7 c13 -5 14
-9 5 -9 -8 0 -24 4 -35 9 -13 5 -14 9 -5 9 8 0 24 -4 35 -9z m-1938 -22 c-3
-12 -1 -31 4 -42 10 -20 10 -21 -5 -2 -14 18 -21 15 -17 -6 0 -5 -4 -8 -10 -8
-6 0 -9 3 -7 8 3 4 11 22 18 40 16 37 25 42 17 10z m3303 12 c8 -5 11 -10 5
-10 -5 0 -17 5 -25 10 -8 5 -10 10 -5 10 6 0 17 -5 25 -10z m-1725 -63 c16
-15 -48 20 -70 38 -11 9 -2 7 20 -6 22 -12 45 -26 50 -32z m452 47 c-3 -3 -12
-4 -19 -1 -8 3 -5 6 6 6 11 1 17 -2 13 -5z m620 0 c-3 -3 -12 -4 -19 -1 -8 3
-5 6 6 6 11 1 17 -2 13 -5z m4532 -40 c23 -26 41 -54 41 -64 0 -34 -55 -70
-131 -84 l-36 -6 -28 66 c-27 64 -28 67 -9 77 57 33 100 54 111 56 6 0 30 -20
52 -45z m-7419 32 c0 -3 -4 -8 -10 -11 -5 -3 -10 -1 -10 4 0 6 5 11 10 11 6 0
10 -2 10 -4z m2333 -3 c-7 -2 -19 -2 -25 0 -7 3 -2 5 12 5 14 0 19 -2 13 -5z
m510 0 c-7 -2 -19 -2 -25 0 -7 3 -2 5 12 5 14 0 19 -2 13 -5z m377 3 c0 -2 -8
-10 -17 -17 -16 -13 -17 -12 -4 4 13 16 21 21 21 13z m-3185 -16 c8 -12 -3
-50 -14 -50 -5 0 -8 13 -7 30 1 30 10 38 21 20z m2383 3 c-10 -2 -28 -2 -40 0
-13 2 -5 4 17 4 22 1 32 -1 23 -4z m1229 1 c-3 -3 -12 -4 -19 -1 -8 3 -5 6 6
6 11 1 17 -2 13 -5z m-1662 -14 c3 -6 -1 -7 -9 -4 -18 7 -21 14 -7 14 6 0 13
-4 16 -10z m542 4 c-3 -3 -12 -4 -19 -1 -8 3 -5 6 6 6 11 1 17 -2 13 -5z
m1190 -10 c-3 -3 -12 -4 -19 -1 -8 3 -5 6 6 6 11 1 17 -2 13 -5z m-3733 -36
c-3 -4 -11 -8 -17 -7 -9 0 -9 2 0 5 7 3 9 13 6 22 -4 14 -3 14 5 2 6 -8 8 -18
6 -22z m197 18 c5 3 9 0 9 -6 0 -15 -23 -7 -26 8 -1 7 0 8 3 2 2 -5 9 -8 14
-4z m1859 4 c18 -12 2 -12 -25 0 -13 6 -15 9 -5 9 8 0 22 -4 30 -9z m-1895
-10 c3 -5 1 -10 -4 -10 -6 0 -11 5 -11 10 0 6 2 10 4 10 3 0 8 -4 11 -10z
m134 -3 c-2 -2 -19 -9 -36 -15 -24 -8 -34 -8 -39 0 -4 7 -2 8 4 4 7 -4 12 -3
12 1 0 5 14 10 32 11 18 2 30 1 27 -1z m1811 -7 c8 -5 11 -10 5 -10 -5 0 -17
5 -25 10 -8 5 -10 10 -5 10 6 0 17 -5 25 -10z m-195 -10 c3 -6 -1 -7 -9 -4
-18 7 -21 14 -7 14 6 0 13 -4 16 -10z m1255 7 c0 -2 -12 -14 -27 -28 l-28 -24
24 28 c23 25 31 32 31 24z m773 -4 c-7 -2 -21 -2 -30 0 -10 3 -4 5 12 5 17 0
24 -2 18 -5z m-3871 -21 c-6 -2 -12 -12 -12 -22 0 -10 -3 -21 -7 -23 -5 -3 -8
10 -8 27 0 28 3 32 20 28 11 -3 14 -7 7 -10z m2913 8 c-3 -5 -12 -10 -18 -10
-7 0 -6 4 3 10 19 12 23 12 15 0z m1068 3 c-13 -2 -33 -2 -45 0 -13 2 -3 4 22
4 25 0 35 -2 23 -4z m90 0 c-13 -2 -33 -2 -45 0 -13 2 -3 4 22 4 25 0 35 -2
23 -4z m-4136 -23 c-1 -12 -5 -16 -10 -11 -5 5 -6 14 -3 20 11 16 15 13 13 -9z
m24 -23 c-8 -8 -11 -3 -11 19 1 25 2 27 11 11 8 -14 8 -22 0 -30z m1939 28
c14 -8 21 -14 15 -14 -5 0 -21 6 -35 14 -14 8 -20 14 -15 14 6 0 21 -6 35 -14z
m-1797 -6 c-6 -6 -9 -19 -6 -28 4 -13 3 -14 -5 -1 -10 14 1 40 16 40 3 0 1 -5
-5 -11z m92 -11 c-9 -6 -19 -7 -22 -4 -4 3 -1 6 6 6 7 0 9 4 6 10 -4 6 1 7 11
3 15 -6 15 -7 -1 -15z m82 0 c-3 -8 -6 -5 -6 6 -1 11 2 17 5 13 3 -3 4 -12 1
-19z m48 12 c3 -5 1 -10 -4 -10 -6 0 -11 5 -11 10 0 6 2 10 4 10 3 0 8 -4 11
-10z m-165 -22 c0 -12 -3 -18 -7 -14 -11 10 -12 36 -2 36 5 0 9 -10 9 -22z
m87 -4 c-9 -9 -28 6 -21 18 4 6 10 6 17 -1 6 -6 8 -13 4 -17z m968 6 c17 -4
-9 -5 -56 -2 -66 4 -98 1 -140 -13 -106 -35 -183 -109 -221 -213 -9 -26 -17
-38 -18 -27 0 37 54 127 107 175 65 60 142 89 233 88 36 0 79 -4 95 -8z
m-1180 -20 c3 -5 1 -10 -4 -10 -6 0 -11 5 -11 10 0 6 2 10 4 10 3 0 8 -4 11
-10z m95 0 c0 -5 -5 -10 -11 -10 -5 0 -7 5 -4 10 3 6 8 10 11 10 2 0 4 -4 4
-10z m1147 4 c-3 -3 -12 -4 -19 -1 -8 3 -5 6 6 6 11 1 17 -2 13 -5z m-1274
-41 c-3 -7 -9 -13 -13 -13 -5 0 -17 -3 -27 -6 -10 -3 -6 2 9 10 19 11 25 22
22 34 -5 13 -4 14 4 3 6 -8 8 -20 5 -28z m214 15 c-3 -8 -6 -5 -6 6 -1 11 2
17 5 13 3 -3 4 -12 1 -19z m2311 15 c-15 -2 -42 -2 -60 0 -18 2 -6 4 27 4 33
0 48 -2 33 -4z m-2477 -30 c-12 -20 -14 -14 -5 12 4 9 9 14 11 11 3 -2 0 -13
-6 -23z m-114 -2 c0 -11 -4 -18 -8 -15 -4 2 -9 -1 -11 -7 -2 -7 -8 -6 -16 4
-10 12 -10 17 -1 23 8 4 9 3 5 -4 -4 -7 -2 -12 3 -12 6 0 11 7 11 15 0 8 4 15
9 15 6 0 9 -9 8 -19z m3498 -11 c10 -11 16 -20 13 -20 -3 0 -13 9 -23 20 -10
11 -16 20 -13 20 3 0 13 -9 23 -20z m-1278 4 c-3 -3 -12 -4 -19 -1 -8 3 -5 6
6 6 11 1 17 -2 13 -5z m783 2 c0 -2 -12 -11 -27 -20 l-28 -17 24 20 c23 21 31
25 31 17z m-2710 -26 c-13 -11 -25 -20 -28 -20 -3 0 3 9 13 20 10 11 23 20 28
20 6 0 0 -9 -13 -20z m1977 14 c-3 -3 -12 -4 -19 -1 -8 3 -5 6 6 6 11 1 17 -2
13 -5z m-2197 -15 c0 -6 -7 -9 -15 -5 -8 3 -15 1 -15 -4 0 -6 -5 -10 -11 -10
-8 0 -8 5 1 15 15 17 40 20 40 4z m294 -5 c5 -14 4 -15 -9 -4 -17 14 -19 20
-6 20 5 0 12 -7 15 -16z m1953 10 c-3 -3 -12 -4 -19 -1 -8 3 -5 6 6 6 11 1 17
-2 13 -5z m488 -4 c-3 -5 -16 -15 -28 -21 -19 -9 -19 -8 3 10 28 23 34 26 25
11z m-422 -7 c-7 -2 -19 -2 -25 0 -7 3 -2 5 12 5 14 0 19 -2 13 -5z m-2415
-21 c2 -7 -1 -12 -8 -12 -6 0 -9 4 -6 9 4 5 1 12 -4 14 -6 3 -5 4 2 3 6 -1 14
-8 16 -14z m2540 11 c-10 -2 -26 -2 -35 0 -10 3 -2 5 17 5 19 0 27 -2 18 -5z
m427 -3 c-3 -5 -20 -19 -38 -30 -32 -22 -32 -22 3 9 37 32 45 37 35 21z
m-2595 -3 c0 -2 -10 -12 -21 -23 -22 -19 -22 -19 -8 4 12 19 29 30 29 19z
m-280 -11 c0 -3 -4 -8 -10 -11 -5 -3 -10 -1 -10 4 0 6 5 11 10 11 6 0 10 -2
10 -4z m2680 -6 c-8 -5 -19 -10 -25 -10 -5 0 -3 5 5 10 8 5 20 10 25 10 6 0 3
-5 -5 -10z m-1000 -65 c0 -3 -27 8 -60 25 -33 17 -60 33 -60 35 0 3 27 -8 60
-25 33 -17 60 -33 60 -35z m-1650 45 c0 -5 -2 -10 -4 -10 -3 0 -8 5 -11 10 -3
6 -1 10 4 10 6 0 11 -4 11 -10z m77 4 c-3 -3 -12 -4 -19 -1 -8 3 -5 6 6 6 11
1 17 -2 13 -5z m-194 -24 c-3 -11 -13 -20 -22 -19 -10 0 -11 2 -3 6 6 2 12 11
12 19 0 8 4 14 9 14 5 0 7 -9 4 -20z m2697 10 c-8 -5 -19 -10 -25 -10 -5 0 -3
5 5 10 8 5 20 10 25 10 6 0 3 -5 -5 -10z m831 -7 c13 -16 12 -17 -3 -4 -10 7
-18 15 -18 17 0 8 8 3 21 -13z m-3361 -9 c0 -2 -7 -4 -15 -4 -8 0 -15 4 -15
10 0 5 7 7 15 4 8 -4 15 -8 15 -10z m2710 1 c-7 -8 -17 -15 -23 -15 -6 0 -2 7
9 15 25 19 30 19 14 0z m1267 9 c-3 -3 -12 -4 -19 -1 -8 3 -5 6 6 6 11 1 17
-2 13 -5z m-3947 -8 c0 -2 -7 -9 -15 -16 -13 -11 -14 -10 -9 4 5 14 24 23 24
12z m3597 -2 c-3 -3 -12 -4 -19 -1 -8 3 -5 6 6 6 11 1 17 -2 13 -5z m270 0
c-3 -3 -12 -4 -19 -1 -8 3 -5 6 6 6 11 1 17 -2 13 -5z m-3847 -14 c0 -5 -5
-10 -11 -10 -5 0 -7 5 -4 10 3 6 8 10 11 10 2 0 4 -4 4 -10z m1600 -36 c0 -2
-9 0 -20 6 -11 6 -20 13 -20 16 0 2 9 0 20 -6 11 -6 20 -13 20 -16z m737 20
c-3 -3 -12 -4 -19 -1 -8 3 -5 6 6 6 11 1 17 -2 13 -5z m-147 -14 c0 -5 -19 -9
-42 -9 l-43 2 40 7 c22 4 41 8 43 9 1 0 2 -3 2 -9z m73 3 c-13 -2 -33 -2 -45
0 -13 2 -3 4 22 4 25 0 35 -2 23 -4z m-2416 -35 c-3 -8 -6 -5 -6 6 -1 11 2 17
5 13 3 -3 4 -12 1 -19z m1797 7 c11 -8 16 -15 10 -15 -5 0 -18 7 -28 15 -11 8
-16 15 -10 15 5 0 18 -7 28 -15z m-1839 -13 c-3 -3 -11 0 -18 7 -9 10 -8 11 6
5 10 -3 15 -9 12 -12z m1991 -70 c-5 -4 -126 56 -126 63 0 3 29 -10 65 -27 35
-18 63 -34 61 -36z m2027 61 c-7 -2 -19 -2 -25 0 -7 3 -2 5 12 5 14 0 19 -2
13 -5z m-4013 -23 c0 -5 -2 -10 -4 -10 -3 0 -8 5 -11 10 -3 6 -1 10 4 10 6 0
11 -4 11 -10z m837 -87 c-2 -21 -4 -6 -4 32 0 39 2 55 4 38 2 -18 2 -50 0 -70z
m1416 90 c-7 -2 -21 -2 -30 0 -10 3 -4 5 12 5 17 0 24 -2 18 -5z m250 0 c-7
-2 -19 -2 -25 0 -7 3 -2 5 12 5 14 0 19 -2 13 -5z m1312 -13 c10 -11 16 -20
13 -20 -3 0 -13 9 -23 20 -10 11 -16 20 -13 20 3 0 13 -9 23 -20z m-1422 3
c-24 -2 -62 -2 -85 0 -24 2 -5 4 42 4 47 0 66 -2 43 -4z m1318 -10 c13 -16 12
-17 -3 -4 -10 7 -18 15 -18 17 0 8 8 3 21 -13z m-3731 3 c0 -3 -4 -8 -10 -11
-5 -3 -10 -1 -10 4 0 6 5 11 10 11 6 0 10 -2 10 -4z m45 -16 c3 -6 -1 -7 -9
-4 -18 7 -21 14 -7 14 6 0 13 -4 16 -10z m4401 -42 l29 -33 -32 29 c-31 28
-38 36 -30 36 2 0 16 -15 33 -32z m-2371 4 c-3 -3 -11 0 -18 7 -9 10 -8 11 6
5 10 -3 15 -9 12 -12z m-2088 -8 c-3 -3 -12 -4 -19 -1 -8 3 -5 6 6 6 11 1 17
-2 13 -5z m3834 -21 c13 -16 12 -17 -3 -4 -10 7 -18 15 -18 17 0 8 8 3 21 -13z
m-1641 -13 c8 -5 11 -10 5 -10 -5 0 -17 5 -25 10 -8 5 -10 10 -5 10 6 0 17 -5
25 -10z m-1255 -197 c38 -78 91 -146 214 -278 42 -44 53 -60 27 -35 -27 25
-84 85 -127 134 -85 97 -165 239 -174 311 -5 38 -4 37 10 -10 7 -27 30 -82 50
-122z m-918 105 c-3 -8 -6 -5 -6 6 -1 11 2 17 5 13 3 -3 4 -12 1 -19z m143 18
c0 -3 -4 -8 -10 -11 -5 -3 -10 -1 -10 4 0 6 5 11 10 11 6 0 10 -2 10 -4z
m2250 -6 c8 -5 11 -10 5 -10 -5 0 -17 5 -25 10 -8 5 -10 10 -5 10 6 0 17 -5
25 -10z m177 -66 c-3 -3 -12 -4 -19 -1 -8 3 -5 6 6 6 11 1 17 -2 13 -5z m160
-50 c-3 -3 -12 -4 -19 -1 -8 3 -5 6 6 6 11 1 17 -2 13 -5z m-2640 -46 c-3 -8
-6 -5 -6 6 -1 11 2 17 5 13 3 -3 4 -12 1 -19z m-150 -40 c-3 -8 -6 -5 -6 6 -1
11 2 17 5 13 3 -3 4 -12 1 -19z m1436 -397 c48 -35 87 -65 87 -67 0 -15 -236
164 -245 185 -3 7 12 -2 32 -20 21 -19 77 -63 126 -98z m162 -110 c22 -13 117
-64 210 -113 94 -48 167 -88 162 -88 -21 0 -380 190 -422 225 -24 20 -5 11 50
-24z m-1094 -218 c13 -16 12 -17 -3 -4 -10 7 -18 15 -18 17 0 8 8 3 21 -13z
m1524 -11 c-3 -3 -11 0 -18 7 -9 10 -8 11 6 5 10 -3 15 -9 12 -12z m-1392 -69
c20 -13 37 -26 37 -29 0 -3 -17 5 -37 17 -91 55 -113 70 -113 75 0 5 22 -7
113 -63z m1527 17 c8 -5 11 -10 5 -10 -5 0 -17 5 -25 10 -8 5 -10 10 -5 10 6
0 17 -5 25 -10z m50 -20 c8 -5 11 -10 5 -10 -5 0 -17 5 -25 10 -8 5 -10 10 -5
10 6 0 17 -5 25 -10z m85 -30 c13 -6 15 -9 5 -9 -8 0 -22 4 -30 9 -18 12 -2
12 25 0z m-1540 -45 l20 -16 -20 10 c-11 5 -29 17 -40 26 l-20 16 20 -10 c11
-5 29 -17 40 -26z m1595 25 c8 -5 11 -10 5 -10 -5 0 -17 5 -25 10 -8 5 -10 10
-5 10 6 0 17 -5 25 -10z m-1426 -109 c71 -34 194 -87 272 -118 79 -31 142 -58
140 -60 -12 -13 -556 224 -556 242 0 4 3 5 8 3 4 -2 65 -32 136 -67z m1573 63
c-3 -3 -12 -4 -19 -1 -8 3 -5 6 6 6 11 1 17 -2 13 -5z m-2375 -45 c187 -40
335 -215 417 -496 65 -222 67 -498 5 -654 -15 -37 -16 -37 -87 -44 -93 -9
-202 -31 -297 -60 -53 -16 -111 -25 -200 -29 -100 -4 -143 -11 -219 -36 -68
-21 -98 -27 -111 -20 -38 20 -187 50 -250 50 -131 0 -300 -57 -300 -100 0 -10
3 -21 8 -24 4 -2 43 4 87 15 98 24 292 38 281 21 -4 -7 -13 -12 -19 -12 -7 0
-61 -24 -122 -54 -119 -58 -183 -105 -171 -125 9 -15 18 -12 176 49 128 50
319 104 494 140 130 26 136 26 87 -12 -91 -72 -194 -249 -232 -403 -42 -168
-23 -400 45 -533 59 -117 127 -186 245 -250 l54 -30 -59 -17 c-33 -9 -106 -28
-164 -41 -476 -108 -734 -61 -931 170 -119 140 -176 309 -166 490 28 479 502
1396 919 1777 152 138 242 193 364 223 75 18 82 18 146 5z m2695 -35 c-3 -3
-12 -4 -19 -1 -8 3 -5 6 6 6 11 1 17 -2 13 -5z m-1672 -179 c116 -48 272 -107
348 -132 114 -37 137 -48 133 -61 -18 -55 -27 -144 -27 -267 0 -218 32 -353
96 -403 14 -11 57 -28 96 -37 143 -35 282 -5 517 112 147 73 159 74 175 12 5
-20 4 -94 -3 -189 -7 -85 -20 -253 -29 -372 l-16 -217 -160 116 c-432 312
-784 669 -1104 1117 -133 187 -277 425 -250 413 8 -3 109 -45 224 -92z m662
39 c-3 -3 -12 -4 -19 -1 -8 3 -5 6 6 6 11 1 17 -2 13 -5z m-37 -8 c0 -2 -7 -7
-16 -10 -8 -3 -12 -2 -9 4 6 10 25 14 25 6z m177 -2 c-3 -3 -12 -4 -19 -1 -8
3 -5 6 6 6 11 1 17 -2 13 -5z m-496 -45 c49 -18 88 -33 86 -36 -4 -3 -178 55
-186 63 -10 9 15 2 100 -27z m259 17 c0 -2 -8 -10 -17 -17 -16 -13 -17 -12 -4
4 13 16 21 21 21 13z m2392 -83 c151 -114 300 -268 507 -528 258 -322 331
-406 526 -601 306 -307 575 -519 944 -741 85 -51 153 -93 150 -93 -3 0 -77 11
-165 25 -433 66 -925 102 -1446 104 l-186 1 -113 93 c-90 73 -318 269 -387
331 -10 9 -9 34 3 121 59 438 30 937 -73 1235 l-19 55 71 36 c39 20 74 37 78
37 4 1 53 -33 110 -75z m-2525 21 c-3 -3 -12 -4 -19 -1 -8 3 -5 6 6 6 11 1 17
-2 13 -5z m1211 -703 c48 -33 185 -97 272 -127 47 -16 87 -30 88 -31 2 -1 -9
-23 -24 -50 -53 -92 -169 -239 -282 -354 -110 -114 -317 -287 -329 -276 -10
11 -3 176 22 505 14 178 25 326 25 328 0 2 35 4 78 5 42 0 86 4 97 9 11 5 22
9 23 9 2 1 16 -7 30 -18z m-1618 -235 c240 -51 471 -260 564 -510 14 -37 26
-73 26 -80 -1 -6 -16 27 -34 74 -89 234 -276 414 -513 495 -29 10 -102 20
-183 24 l-135 8 105 1 c58 1 134 -5 170 -12z m-280 0 c0 -2 -37 -9 -82 -16
-125 -18 -341 -92 -378 -130 -3 -3 -22 -14 -42 -24 -42 -23 -121 -95 -160
-146 -53 -70 -107 -200 -121 -290 -3 -18 -5 -15 -6 11 -3 89 77 247 174 344
103 103 253 183 421 224 100 25 194 38 194 27z m-520 -70 c0 -2 -23 -18 -50
-36 -62 -40 -164 -149 -208 -223 -71 -118 -119 -321 -108 -459 12 -171 76
-340 158 -420 57 -55 140 -91 190 -81 30 6 32 5 20 -10 -20 -24 -108 -40 -203
-36 -75 4 -95 9 -164 43 -138 68 -210 160 -259 330 -82 282 46 645 275 779 87
51 349 136 349 113z m709 -289 c13 -12 44 -49 69 -82 44 -58 43 -57 -28 18
-75 80 -156 136 -200 138 -22 0 -23 1 -6 8 21 8 120 -41 165 -82z m-115 -9
c115 -107 212 -237 230 -308 4 -14 -7 1 -23 32 -44 86 -101 158 -203 258 -51
49 -90 90 -87 90 3 0 40 -33 83 -72z m343 -154 c18 -14 33 -30 33 -36 0 -7
-15 2 -32 19 -18 17 -44 33 -58 36 l-25 4 24 2 c13 0 39 -10 58 -25z m-688
-34 c31 -17 88 -60 126 -96 l70 -66 -85 70 c-97 79 -156 112 -200 112 -34 0
-49 -22 -30 -45 8 -9 8 -15 2 -15 -17 0 -25 39 -12 55 19 23 67 18 129 -15z
m70 -166 c126 -136 174 -269 137 -380 -16 -49 -65 -120 -66 -96 0 6 4 12 8 12
5 0 19 21 33 48 38 75 34 167 -10 255 -48 94 -131 191 -204 238 -79 51 -85 59
-18 23 30 -16 82 -59 120 -100z m1078 64 c-2 -13 -4 -5 -4 17 -1 22 1 32 4 23
2 -10 2 -28 0 -40z m-1653 -248 c18 -76 62 -174 98 -217 l40 -48 -45 48 c-65
68 -114 206 -117 329 -3 132 4 157 10 38 4 -69 10 -136 14 -150z m1636 115
c-12 -19 -24 -35 -27 -35 -2 0 5 15 16 34 12 18 22 49 23 67 l1 34 4 -33 c3
-21 -3 -44 -17 -67z m-520 -11 c12 -89 12 -114 -1 -114 -5 0 -8 4 -4 10 6 9
-8 130 -20 180 -5 20 -4 22 4 9 6 -9 15 -48 21 -85z m130 10 c0 -14 -49 46
-55 68 -5 15 4 7 24 -19 17 -24 31 -46 31 -49z m-490 -9 c16 -29 30 -56 30
-61 0 -5 -14 16 -31 46 -17 30 -39 64 -48 75 -15 18 -15 19 1 6 10 -7 31 -37
48 -66z m1223 -51 c69 -73 74 -84 51 -101 -28 -21 -53 -10 -122 56 -65 61 -66
66 -34 103 19 23 38 12 105 -58z m-766 44 c-3 -8 -6 -5 -6 6 -1 11 2 17 5 13
3 -3 4 -12 1 -19z m143 -97 c14 -11 22 -20 18 -21 -10 0 -89 68 -111 98 -12
16 -2 9 24 -15 24 -23 55 -51 69 -62z m-143 -13 c-2 -13 -4 -5 -4 17 -1 22 1
32 4 23 2 -10 2 -28 0 -40z m483 48 c0 -2 -8 -10 -17 -17 -16 -13 -17 -12 -4
4 13 16 21 21 21 13z m-1475 -102 c35 -24 67 -44 72 -44 5 0 18 -7 29 -15 43
-33 -52 14 -119 59 -69 46 -91 54 -102 37 -6 -11 75 -144 95 -156 16 -10 50
-85 49 -110 0 -11 -7 0 -14 25 -8 25 -35 70 -60 100 -25 30 -45 59 -45 63 0 5
-9 22 -21 38 -17 25 -19 32 -8 45 18 22 51 11 124 -42z m876 -26 c-12 -24 -19
-36 -16 -28 2 8 10 35 17 59 7 24 14 37 16 28 2 -9 -6 -35 -17 -59z m334 56
l40 -15 -35 6 c-19 3 -39 10 -44 15 -13 13 -8 12 39 -6z m175 6 c-8 -5 -19
-10 -25 -10 -5 0 -3 5 5 10 8 5 20 10 25 10 6 0 3 -5 -5 -10z m285 -26 c9 -15
12 -23 6 -20 -11 7 -35 46 -28 46 3 0 12 -12 22 -26z m-347 9 c-10 -2 -26 -2
-35 0 -10 3 -2 5 17 5 19 0 27 -2 18 -5z m-188 -40 c0 -10 14 -47 30 -81 17
-35 28 -68 25 -72 -3 -5 -37 -21 -75 -36 -61 -24 -73 -25 -84 -13 -19 21 -66
133 -66 157 0 26 11 33 75 48 73 18 95 17 95 -3z m735 -24 c9 -17 15 -34 13
-39 -2 -5 -11 9 -20 30 -20 47 -15 53 7 9z m-1695 -61 c0 -5 -11 -1 -25 8 -14
9 -25 18 -25 20 0 2 11 -2 25 -8 14 -6 25 -15 25 -20z m757 -90 c-2 -13 -4 -3
-4 22 0 25 2 35 4 23 2 -13 2 -33 0 -45z m3548 15 c82 -43 115 -98 115 -189 0
-50 -21 -124 -35 -124 -3 0 -1 9 5 19 18 34 11 33 -32 -4 -60 -51 -130 -69
-231 -60 -44 3 -92 11 -106 16 -24 8 -23 6 9 -22 l35 -31 -35 20 c-22 13 -45
39 -62 73 -64 122 -13 270 108 315 56 20 177 13 229 -13z m-3179 -20 c15 -20
23 -33 16 -29 -13 8 -56 66 -49 66 3 0 17 -17 33 -37z m611 15 c-3 -8 -6 -5
-6 6 -1 11 2 17 5 13 3 -3 4 -12 1 -19z m21 -98 l0 -25 -8 25 c-4 14 -8 39 -8
55 l0 30 8 -30 c4 -16 8 -41 8 -55z m-1001 38 c-3 -8 -6 -5 -6 6 -1 11 2 17 5
13 3 -3 4 -12 1 -19z m314 -15 c13 -16 12 -17 -3 -4 -17 13 -22 21 -14 21 2 0
10 -8 17 -17z m109 8 c0 -5 16 -19 35 -32 19 -13 37 -30 40 -37 3 -8 -17 5
-45 28 -52 43 -57 50 -40 50 6 0 10 -4 10 -9z m535 -46 c24 -5 25 -8 25 -80 0
-40 -4 -77 -10 -80 -8 -5 -112 21 -128 31 -2 1 3 15 11 31 8 15 18 47 22 70 7
46 1 44 80 28z m-900 -57 c9 -16 15 -28 12 -28 -9 0 -57 72 -57 85 0 9 9 -3
45 -57z m125 17 c24 -29 24 -29 2 -10 -13 11 -28 29 -34 40 -11 21 -8 18 32
-30z m191 18 c13 -16 12 -17 -3 -4 -10 7 -18 15 -18 17 0 8 8 3 21 -13z m439
9 c0 -5 -7 -17 -15 -28 -14 -18 -14 -17 -4 9 12 27 19 34 19 19z m-251 -48
c14 -12 -19 -1 -35 12 -18 14 -18 14 6 3 14 -6 27 -13 29 -15z m-334 -34 c10
-11 16 -20 13 -20 -3 0 -13 9 -23 20 -10 11 -16 20 -13 20 3 0 13 -9 23 -20z
m253 -18 c19 -13 59 -34 90 -47 l57 -22 -3 -43 c-1 -23 -7 -51 -12 -61 -10
-17 -13 -17 -63 -3 -61 18 -213 97 -197 102 6 2 17 -1 25 -8 14 -12 17 -4 39
93 7 30 10 30 64 -11z m191 12 c10 -9 -45 -3 -59 6 -11 7 -5 8 20 4 19 -4 37
-8 39 -10z m61 -4 c-8 -5 -24 -9 -35 -9 -16 1 -16 2 5 9 35 11 48 11 30 0z
m1646 -39 c18 -11 40 -37 49 -59 l17 -39 182 -58 c99 -32 219 -72 266 -90 47
-17 120 -45 162 -61 43 -15 74 -31 69 -34 -4 -3 -14 -15 -20 -28 -12 -22 -14
-22 -36 -8 -14 9 -38 16 -55 16 -18 0 -33 6 -36 15 -4 10 -11 12 -22 6 -11 -6
-56 8 -146 45 -133 56 -188 74 -240 80 -16 2 -34 8 -40 13 -6 5 -44 19 -84 32
-70 22 -73 23 -102 5 -33 -19 -79 -23 -120 -12 -24 7 -23 6 8 -23 18 -17 28
-31 23 -31 -5 0 -25 18 -45 40 -30 33 -36 48 -36 83 0 53 21 84 74 108 53 24
93 24 132 0z m2242 -97 c46 -32 66 -116 41 -169 -7 -15 -8 -10 -4 18 l6 38
-30 -22 c-30 -22 -55 -23 -167 -3 -25 5 -39 -2 -80 -36 -27 -23 -60 -46 -74
-52 -44 -18 -133 -36 -210 -43 -41 -4 -106 -16 -145 -26 -83 -23 -102 -23
-120 -5 -12 11 0 17 73 36 191 51 512 167 512 186 0 7 17 31 38 54 35 36 44
40 88 40 29 0 59 -7 72 -16z m-4274 -57 c-3 -8 17 -24 56 -42 33 -16 58 -30
56 -32 -6 -6 -126 56 -126 65 0 8 10 22 16 22 2 0 1 -6 -2 -13z m3115 -3 c9
-8 -85 -2 -104 6 -12 5 4 6 40 3 33 -3 62 -7 64 -9z m258 -30 c-3 -3 -12 -4
-19 -1 -8 3 -5 6 6 6 11 1 17 -2 13 -5z m70 -10 c-3 -3 -12 -4 -19 -1 -8 3 -5
6 6 6 11 1 17 -2 13 -5z m58 -24 c3 -6 -1 -7 -9 -4 -18 7 -21 14 -7 14 6 0 13
-4 16 -10z m228 3 c-7 -2 -19 -2 -25 0 -7 3 -2 5 12 5 14 0 19 -2 13 -5z
m-742 -18 c31 -15 32 -15 6 -10 -26 5 -28 4 -25 -22 3 -26 6 -28 53 -31 89 -4
115 -11 115 -32 0 -10 8 -20 18 -22 23 -6 -54 -28 -93 -27 -16 0 -48 8 -70 18
l-40 18 0 61 c0 34 1 62 1 62 1 0 17 -7 35 -15z m229 -5 c0 -11 -2 -20 -4 -20
-2 0 -6 9 -9 20 -3 11 -1 20 4 20 5 0 9 -9 9 -20z m-3060 0 c8 -5 11 -10 5
-10 -5 0 -17 5 -25 10 -8 5 -10 10 -5 10 6 0 17 -5 25 -10z m63 -17 c-7 -2
-21 -2 -30 0 -10 3 -4 5 12 5 17 0 24 -2 18 -5z m2855 0 c-10 -2 -26 -2 -35 0
-10 3 -2 5 17 5 19 0 27 -2 18 -5z m139 -45 c-3 -7 -5 -2 -5 12 0 14 2 19 5
13 2 -7 2 -19 0 -25z m823 -27 c-8 -5 -31 -11 -50 -14 -35 -6 -35 -6 5 8 46
15 67 18 45 6z m-1543 -17 c-3 -3 -12 -4 -19 -1 -8 3 -5 6 6 6 11 1 17 -2 13
-5z m1408 -24 c-11 -5 -27 -9 -35 -9 -9 0 -8 4 5 9 11 5 27 9 35 9 9 0 8 -4
-5 -9z m-1017 -30 c14 -11 56 -30 94 -41 74 -23 141 -21 222 7 37 12 39 12 22
-1 -19 -14 -19 -15 -2 -15 11 0 25 -8 33 -17 8 -10 12 -12 8 -6 -4 8 -1 11 9
7 8 -3 12 -12 10 -19 -6 -16 12 -29 21 -15 3 5 11 10 16 10 5 0 -9 -18 -32
-40 -41 -39 -56 -49 -44 -31 3 5 0 13 -7 17 -7 4 -10 4 -6 -1 4 -4 4 -13 -2
-19 -5 -7 -12 -27 -15 -45 -12 -68 -94 -102 -216 -90 -43 4 -88 12 -100 19
-21 10 -21 8 4 -14 34 -32 22 -34 -15 -3 -31 26 -73 106 -83 158 -7 40 6 102
30 137 20 27 21 27 53 2z m427 0 c3 -6 -1 -7 -9 -4 -18 7 -21 14 -7 14 6 0 13
-4 16 -10z m-725 -136 c-55 -21 -92 -27 -240 -35 -189 -10 -415 -31 -575 -54
-55 -8 -138 -19 -185 -25 -237 -30 -573 -108 -890 -205 -273 -84 -345 -113
-615 -245 -402 -196 -655 -395 -872 -684 -91 -121 -164 -270 -194 -396 -35
-143 -33 -329 4 -465 33 -119 75 -214 135 -310 98 -153 274 -344 442 -478 69
-55 121 -98 115 -96 -245 110 -335 177 -512 383 -146 170 -233 326 -289 521
-26 90 -29 115 -29 245 0 147 8 198 47 315 58 173 146 316 290 471 185 202
383 351 671 504 356 189 964 383 1475 471 142 24 594 74 802 89 85 6 173 12
195 14 22 1 96 3 165 4 l125 1 -65 -25z m138 -69 c14 -31 15 -38 3 -30 -6 3
-65 -21 -133 -54 -141 -67 -316 -137 -370 -146 -21 -4 -57 -19 -80 -34 -35
-22 -45 -36 -55 -72 -7 -25 -22 -56 -33 -70 l-22 -24 16 25 c28 43 20 51 -26
30 -52 -24 -97 -25 -145 -5 -42 18 -52 13 -34 -18 13 -20 13 -21 -2 -9 -39 33
-32 124 13 176 46 52 78 61 143 41 52 -16 55 -16 113 5 32 12 133 48 224 80
91 31 210 74 265 94 55 20 103 36 106 36 3 0 11 -11 17 -25z m676 6 c38 -23
232 -105 420 -177 l139 -53 41 21 c82 42 176 16 211 -58 26 -56 4 -128 -47
-155 -20 -10 -20 -8 5 18 35 38 34 47 -3 28 -34 -18 -104 -20 -151 -4 -19 7
-59 35 -89 63 -56 52 -59 53 -345 164 -77 30 -186 95 -172 104 8 6 6 8 -8 6
-28 -4 -45 10 -39 30 4 10 2 13 -3 7 -4 -5 -17 -17 -28 -25 -17 -13 -16 -11 4
18 12 17 25 32 28 32 3 0 20 -9 37 -19z m96 -151 c8 -5 11 -10 5 -10 -5 0 -17
5 -25 10 -8 5 -10 10 -5 10 6 0 17 -5 25 -10z m-402 -7 c-10 -2 -26 -2 -35 0
-10 3 -2 5 17 5 19 0 27 -2 18 -5z m462 -18 c14 -8 21 -14 15 -14 -5 0 -21 6
-35 14 -14 8 -20 14 -15 14 6 0 21 -6 35 -14z m-1785 -25 c0 -8 -16 -18 -35
-23 -51 -13 -65 -47 -19 -47 10 0 19 -7 19 -15 0 -8 -9 -15 -20 -15 -23 0 -26
-24 -9 -84 6 -22 7 -42 2 -47 -17 -17 -45 17 -58 72 -7 33 -17 53 -25 51 -16
-4 -41 18 -34 29 3 5 13 9 23 9 10 0 23 14 32 32 8 18 25 38 39 45 31 16 85
11 85 -7z m1147 -15 c57 -27 51 -35 -8 -10 -24 10 -34 11 -32 3 2 -6 20 -17
39 -23 19 -7 51 -24 71 -37 21 -14 69 -34 108 -43 l71 -18 -7 -76 c-3 -42 -13
-89 -21 -105 -15 -28 -16 -28 -81 -23 -37 2 -76 8 -86 13 -14 5 -17 4 -12 -4
13 -22 -13 -12 -44 16 -23 20 -32 40 -39 82 -11 67 -24 250 -18 250 3 0 29
-11 59 -25z m-162 10 c0 -3 -9 -14 -21 -26 -13 -13 -19 -30 -17 -47 2 -22 9
-28 36 -30 24 -2 32 -8 32 -23 0 -41 -104 -10 -116 35 -3 13 -4 36 -2 52 2 23
9 30 33 35 41 9 55 10 55 4z m-340 -15 c-8 -5 -19 -10 -25 -10 -5 0 -3 5 5 10
8 5 20 10 25 10 6 0 3 -5 -5 -10z m1270 -10 c8 -5 11 -10 5 -10 -5 0 -17 5
-25 10 -8 5 -10 10 -5 10 6 0 17 -5 25 -10z m-383 -62 c-3 -8 -6 -5 -6 6 -1
11 2 17 5 13 3 -3 4 -12 1 -19z m-2060 -40 c29 -27 31 -80 3 -108 -27 -27 -26
-29 18 -19 54 12 82 11 82 -5 0 -12 -73 -33 -140 -39 -35 -3 -38 32 -6 71 34
40 34 70 -1 83 -22 8 -32 6 -55 -11 -18 -13 -36 -19 -48 -15 -33 10 -23 35 23
56 49 23 91 19 124 -13z m923 28 c0 -2 -9 -6 -20 -9 -11 -3 -18 -1 -14 4 5 9
34 13 34 5z m1127 -108 c-3 -7 -5 -2 -5 12 0 14 2 19 5 13 2 -7 2 -19 0 -25z
m-2379 -122 c-2 -55 -6 -71 -18 -71 -11 0 -16 16 -20 67 -3 36 -8 70 -12 73
-4 4 -26 0 -49 -9 -38 -15 -44 -16 -57 -2 -14 14 -14 16 4 22 10 4 39 15 64
25 l45 18 23 -26 c20 -22 22 -34 20 -97z m1009 88 c-3 -3 -12 -4 -19 -1 -8 3
-5 6 6 6 11 1 17 -2 13 -5z m76 -1 c-7 -2 -19 -2 -25 0 -7 3 -2 5 12 5 14 0
19 -2 13 -5z m2961 -14 c40 -31 35 -69 -15 -114 -50 -45 -123 -79 -153 -71
-34 8 -76 45 -76 66 0 25 57 90 79 90 32 0 32 -13 -1 -48 l-33 -33 24 -20 c15
-12 31 -17 45 -13 34 10 84 47 98 72 11 21 10 26 -12 43 -14 10 -33 19 -42 19
-9 0 -19 4 -22 9 -18 28 71 29 108 0z m-4216 -81 c71 -66 79 -80 49 -86 -13
-3 -35 14 -67 50 -46 50 -49 52 -63 34 -14 -19 -37 -15 -37 7 0 17 29 57 41
57 5 0 40 -28 77 -62z m3457 42 c-3 -5 -12 -10 -18 -10 -7 0 -6 4 3 10 19 12
23 12 15 0z m-1381 -25 c15 -23 15 -25 -1 -25 -10 0 -126 -5 -258 -10 -484
-20 -885 -82 -1260 -193 -392 -117 -660 -237 -863 -389 -262 -195 -419 -400
-487 -634 -40 -138 -30 -262 35 -418 46 -109 98 -185 205 -295 183 -189 412
-328 745 -451 356 -133 470 -162 945 -240 539 -89 1458 -79 1980 21 178 33
557 127 660 162 356 122 573 241 827 455 224 187 337 387 339 599 3 332 -216
655 -606 895 -177 109 -371 200 -560 261 -319 105 -503 141 -925 182 -256 25
-241 22 -234 53 4 15 8 29 10 31 2 2 47 -2 101 -8 54 -6 163 -18 243 -27 510
-55 984 -201 1381 -426 335 -189 574 -457 659 -737 46 -150 27 -379 -42 -514
-59 -117 -186 -265 -325 -379 -308 -252 -842 -470 -1413 -578 -91 -17 -187
-35 -215 -40 -378 -74 -1310 -79 -1785 -10 -126 18 -537 101 -674 136 -200 50
-509 160 -712 254 -174 80 -436 277 -561 421 -90 106 -167 280 -185 422 -31
248 51 457 273 695 152 163 286 254 592 402 191 92 322 143 547 210 366 109
971 195 1401 199 146 1 147 1 163 -24z m346 -45 c-8 -5 -24 -9 -35 -9 -16 1
-16 2 5 9 35 11 48 11 30 0z m-92 -7 c-10 -2 -26 -2 -35 0 -10 3 -2 5 17 5 19
0 27 -2 18 -5z m-2714 -34 c14 -17 26 -36 26 -42 0 -7 17 -12 44 -12 81 -1
126 -75 74 -122 -40 -36 -64 -45 -78 -28 -7 9 -11 17 -9 18 2 2 16 11 32 20
57 36 21 81 -61 75 -44 -3 -46 -2 -52 28 -9 43 -18 54 -44 54 -26 0 -46 -17
-46 -41 0 -24 -18 -33 -35 -19 -27 22 -18 55 23 78 54 32 95 29 126 -9z m2903
-241 c-1 -46 -3 -9 -3 82 0 91 2 128 3 83 2 -46 2 -120 0 -165z m-277 167 c30
-9 88 -20 128 -22 l72 -6 0 -46 c1 -57 16 -181 24 -188 3 -3 11 -2 19 3 7 5 5
1 -5 -8 -21 -19 -130 -33 -185 -24 -73 13 -134 38 -149 61 -13 20 -14 40 -5
137 6 62 11 121 11 132 0 17 1 17 18 -1 9 -11 42 -28 72 -38z m2430 40 c35
-18 40 -53 12 -78 -53 -48 -172 -72 -237 -47 -32 12 -31 47 0 41 79 -14 124
-12 164 9 23 11 41 26 38 33 -6 19 -64 20 -112 1 -36 -13 -48 -14 -60 -4 -23
19 -18 27 28 43 55 20 131 21 167 2z m-2215 -10 c-16 -8 -37 -14 -45 -14 -8 0
1 7 20 14 46 18 64 17 25 0z m474 -48 c-2 -1 -13 -9 -24 -17 -19 -14 -19 -14
-6 3 7 9 18 17 24 17 6 0 8 -1 6 -3z m-3663 -123 c48 -23 63 -48 57 -95 -4
-24 -1 -45 7 -54 12 -14 15 -14 32 2 13 11 17 25 13 40 -4 16 0 25 10 29 22 9
45 -14 45 -46 0 -35 -61 -93 -93 -88 -33 5 -70 66 -62 104 8 44 -25 84 -70 84
-39 0 -63 -23 -46 -44 6 -7 9 -21 5 -30 -5 -14 -9 -14 -35 5 -37 26 -37 51 2
83 36 31 84 34 135 10z m2790 -29 c-11 -43 11 -101 50 -133 50 -42 132 -62
246 -62 119 0 187 20 228 67 17 19 30 31 30 27 0 -4 -7 -15 -16 -25 -11 -12
-13 -25 -8 -41 4 -13 8 -27 9 -33 0 -5 6 -9 13 -7 12 2 12 -5 -1 -68 -18 -84
-18 -87 11 -83 63 8 -55 -27 -137 -42 -108 -19 -175 -19 -300 0 -115 17 -191
43 -258 88 -83 56 -112 123 -79 185 32 61 152 152 199 152 15 0 18 -5 13 -25z
m3059 -77 c28 -13 40 -37 25 -52 -7 -7 -16 -7 -28 2 -29 20 -65 33 -79 28 -11
-5 -11 -10 2 -30 23 -35 15 -67 -23 -93 -68 -45 -153 -40 -202 12 -49 52 20
115 126 115 31 0 50 6 65 21 22 22 62 21 114 -3z m-6318 -190 c31 -29 29 -33
-16 -35 -43 -2 -65 15 -55 41 9 23 44 20 71 -6z m2941 -72 c-4 -68 -1 -103 9
-127 62 -148 374 -265 650 -245 78 6 199 29 268 51 14 4 13 2 -5 -9 -25 -15
-25 -15 20 -16 l45 0 21 -62 c11 -35 24 -70 28 -79 8 -18 7 -19 -169 -50 -207
-36 -516 -22 -690 31 -153 48 -318 149 -372 229 -17 25 -23 48 -23 90 0 69 25
123 77 174 34 33 130 105 142 106 2 1 2 -41 -1 -93z m-2705 53 c53 -14 79 -42
71 -77 -13 -58 -84 -91 -129 -59 -24 18 -10 40 22 34 17 -3 32 2 45 15 18 18
19 22 5 36 -9 8 -40 17 -69 20 -49 4 -55 2 -80 -27 -17 -19 -34 -28 -43 -25
-23 9 -18 33 14 65 24 24 38 29 78 29 26 0 65 -5 86 -11z m2920 -132 c117 -57
196 -72 384 -72 94 0 167 -3 161 -6 -5 -4 -8 -32 -7 -63 l4 -56 -34 -6 c-18
-4 -93 -4 -165 -1 -143 6 -252 30 -340 74 -113 56 -146 98 -146 183 l0 52 44
-39 c24 -21 69 -51 99 -66z m3457 45 c47 -23 53 -61 14 -87 -15 -10 -41 -18
-56 -17 -17 0 -39 -9 -54 -23 -50 -46 -129 -45 -189 1 -40 31 -44 58 -13 91
36 38 78 21 43 -17 -21 -23 -11 -41 35 -60 43 -18 80 -6 80 26 0 25 2 26 48
20 58 -8 87 7 58 29 -11 8 -36 15 -55 15 -42 0 -67 13 -57 29 11 17 107 13
146 -7z m-6772 -257 c37 -8 112 -21 167 -28 77 -9 100 -15 100 -27 0 -28 -149
-19 -269 17 -16 4 -18 1 -14 -31 4 -37 1 -40 -27 -30 -16 7 -55 77 -55 101 0
17 16 16 98 -2z m6935 -95 c24 -12 28 -19 25 -49 -2 -30 -9 -39 -38 -53 -80
-38 -239 -51 -305 -24 -43 18 -61 50 -45 81 11 20 72 48 130 59 47 9 205 -1
233 -14z m-6919 -235 c131 -3 151 -5 163 -21 38 -52 -13 -124 -88 -124 -54 0
-113 32 -128 68 -12 30 -41 42 -95 42 -27 0 -46 18 -39 37 3 9 12 11 22 7 9
-4 83 -8 165 -9z m3813 -21 c-3 -3 -12 -4 -19 -1 -8 3 -5 6 6 6 11 1 17 -2 13
-5z m3126 -50 c92 -57 83 -64 -101 -70 l-137 -5 3 -25 c3 -22 -1 -25 -20 -22
-13 2 -24 11 -26 22 -3 11 -10 26 -18 34 -8 7 -14 23 -14 34 0 16 4 19 23 14
41 -13 144 -19 192 -12 l47 8 -21 22 c-46 49 -6 49 72 0z m-6675 -309 c44 -52
16 -104 -73 -131 -94 -28 -196 -14 -238 34 -60 66 57 136 213 127 66 -3 78 -7
98 -30z m6578 14 c4 -6 10 -27 14 -45 l8 -34 -62 0 c-65 0 -222 23 -233 34 -4
4 0 13 8 20 12 11 28 11 99 0 117 -18 130 -18 130 4 0 30 22 43 36 21z m-36
-134 c0 -9 -11 -27 -25 -41 -24 -24 -30 -25 -87 -19 -34 4 -75 11 -92 16 -17
5 -45 9 -63 9 -33 0 -52 15 -36 31 8 8 155 -4 201 -17 16 -5 22 -2 22 9 0 18
14 25 53 26 18 1 27 -4 27 -14z m-264 -195 c129 -26 153 -33 156 -45 2 -5 -12
-11 -30 -13 -24 -2 -32 -8 -30 -20 5 -27 -71 -28 -113 -2 -19 12 -55 35 -81
51 -87 53 -59 61 98 29z m-6037 -3 c81 -42 32 -94 -126 -134 -104 -26 -200 3
-186 57 15 57 242 114 312 77z m5735 -143 c21 -8 20 -24 -1 -24 -20 0 -63 -38
-63 -57 0 -23 47 -26 104 -4 46 17 56 18 56 6 0 -7 -10 -21 -22 -30 -23 -16
-23 -16 -4 -30 29 -22 62 -18 84 10 19 24 52 26 52 3 0 -15 -40 -48 -78 -65
-29 -12 -37 -12 -66 2 -19 9 -42 25 -52 36 -11 12 -30 19 -53 19 -43 0 -81 23
-81 49 0 21 73 91 94 91 8 0 21 -3 30 -6z m-5502 -41 c22 -20 23 -33 3 -33 -8
0 -15 -8 -15 -18 0 -13 -14 -25 -42 -37 -24 -10 -71 -30 -105 -46 -59 -26 -62
-26 -78 -10 -15 17 -9 21 95 66 97 42 132 65 100 65 -5 0 -10 7 -10 15 0 20
29 19 52 -2z m138 -118 c6 -8 9 -18 6 -23 -3 -6 -51 -29 -107 -52 l-101 -43
23 -18 c29 -23 11 -24 -38 -4 -53 22 -66 35 -52 51 6 8 19 14 28 14 9 1 61 20
116 44 118 52 109 50 125 31z m885 -105 c-3 -5 -12 -10 -18 -10 -7 0 -6 4 3
10 19 12 23 12 15 0z m4050 -10 c16 -26 102 -65 144 -65 36 0 45 -4 52 -22 12
-33 -21 -49 -70 -34 -39 11 -181 98 -181 110 0 21 43 30 55 11z m-4587 -116
c12 -4 22 -11 22 -16 0 -22 -177 -75 -194 -58 -6 6 2 13 20 20 67 24 69 29 10
23 -48 -5 -58 -3 -54 8 7 21 142 37 196 23z m4302 -25 c58 -26 80 -47 80 -76
0 -31 -31 -60 -79 -73 -32 -8 -48 -7 -87 7 -88 33 -108 102 -41 143 40 25 70
25 127 -1z m-3822 -100 c7 -36 -95 -116 -118 -93 -7 7 -3 19 16 37 26 26 26
27 5 27 -47 0 -14 36 39 42 47 6 54 4 58 -13z m340 -75 c12 -8 22 -25 22 -37
0 -28 -26 -67 -46 -67 -16 0 -19 26 -4 35 6 3 10 13 10 22 0 11 -6 14 -26 9
-54 -14 -90 24 -41 44 33 13 60 12 85 -6z m2962 -12 c33 -25 40 -72 11 -72
-12 0 -21 5 -21 12 0 36 -66 61 -114 42 -18 -7 -22 -49 -6 -59 18 -11 11 -25
-13 -25 -32 0 -47 18 -47 57 0 27 6 37 33 54 39 25 117 20 157 -9z m-2766 -41
c14 -15 15 -24 6 -40 -15 -28 -54 -29 -47 -1 7 26 -18 26 -61 0 -37 -23 -72
-26 -72 -7 0 19 89 66 126 67 18 0 38 -8 48 -19z m286 -63 c0 -6 -10 -27 -22
-45 -17 -24 -31 -33 -50 -33 -32 0 -34 6 -11 32 15 17 15 18 -5 18 -26 0 -29
15 -4 29 24 15 92 14 92 -1z m1894 -13 c14 -13 26 -29 26 -35 0 -21 -31 -22
-54 -1 -29 28 -81 28 -96 1 -6 -11 -7 -20 -3 -21 4 0 -1 -4 -12 -8 -26 -11
-35 -5 -35 24 0 62 120 90 174 40z m-1704 1 c0 -26 -35 -76 -53 -76 -14 0 -17
5 -12 20 6 18 4 19 -19 10 -43 -16 -39 7 6 34 48 29 78 33 78 12z m1172 -23
c20 -18 24 -53 6 -53 -6 0 -21 9 -33 20 -25 23 -51 18 -60 -11 -4 -10 -13 -19
-21 -19 -21 0 -18 57 4 69 27 16 83 13 104 -6z m-198 -6 c26 -19 18 -61 -13
-65 -19 -3 -22 0 -18 12 9 22 -18 32 -48 18 -17 -8 -28 -7 -42 3 -17 13 -16
15 17 29 43 19 81 20 104 3z m-431 -3 c12 -13 -48 -74 -72 -74 -24 0 -24 0 -5
22 19 21 19 21 -6 15 -14 -4 -49 -7 -78 -7 -33 0 -51 -4 -47 -10 4 -6 -8 -10
-28 -10 -33 0 -46 15 -47 52 0 4 55 9 123 11 67 1 129 4 138 5 9 1 18 -1 22
-4z"/>
<path d="M4591 14135 c-187 -42 -272 -148 -259 -319 6 -70 26 -116 72 -164 51
-55 116 -83 341 -148 170 -49 202 -63 235 -100 34 -39 54 -103 45 -144 -11
-51 -60 -106 -120 -135 -135 -67 -352 -24 -449 87 l-43 49 -57 -27 c-31 -16
-56 -31 -56 -35 0 -18 51 -78 95 -111 91 -69 200 -99 361 -99 186 0 345 74
398 184 37 78 43 149 16 220 -12 32 -35 73 -51 92 -45 51 -153 101 -315 146
-259 71 -322 118 -312 234 6 66 35 105 104 140 49 25 62 27 137 23 89 -5 173
-36 219 -83 l24 -24 75 21 c40 12 76 23 79 26 13 11 -105 100 -180 135 -80 38
-91 41 -190 44 -67 2 -129 -3 -169 -12z"/>
<path d="M2121 14135 c-125 -28 -267 -140 -335 -264 -65 -120 -88 -321 -53
-464 37 -149 126 -269 257 -347 87 -51 156 -70 258 -70 138 0 266 44 360 125
70 61 71 69 7 111 l-55 37 -44 -41 c-130 -120 -310 -134 -458 -37 -55 37 -125
131 -148 200 -58 174 -19 401 89 517 98 107 267 146 379 89 38 -19 101 -81
121 -119 10 -19 12 -19 76 6 36 14 65 31 65 37 0 35 -55 116 -98 145 -104 69
-296 103 -421 75z"/>
<path d="M7985 14144 c-176 -27 -314 -121 -380 -259 -57 -117 -70 -182 -70
-340 0 -121 3 -150 24 -210 74 -219 255 -344 500 -345 193 0 342 93 429 270
56 114 76 216 68 340 -17 265 -133 441 -341 516 -65 24 -172 36 -230 28z m190
-158 c122 -58 194 -167 223 -340 16 -91 15 -101 -2 -184 -22 -109 -64 -190
-130 -249 -74 -67 -125 -87 -221 -87 -62 -1 -91 4 -128 21 -70 32 -161 128
-199 210 -29 62 -33 78 -36 188 -4 103 -1 129 17 183 46 136 127 226 240 267
62 23 178 19 236 -9z"/>
<path d="M7965 13908 c-47 -13 -132 -94 -159 -151 -9 -21 -25 -72 -33 -114
-26 -129 5 -250 91 -350 68 -78 165 -102 269 -67 122 41 199 220 176 407 -13
107 -83 218 -161 258 -49 25 -128 32 -183 17z"/>
<path d="M3340 14100 c-4 -8 -37 -107 -74 -220 -37 -113 -86 -259 -111 -325
-141 -383 -184 -502 -187 -515 -2 -11 11 -15 60 -18 103 -6 103 -6 141 110 19
57 38 109 44 116 7 9 69 12 247 12 178 0 240 -3 248 -12 5 -7 26 -61 47 -120
l38 -108 73 0 c41 0 74 4 74 9 0 5 -24 75 -53 157 -29 82 -111 323 -182 536
l-129 387 -114 3 c-93 2 -115 0 -122 -12z m148 -159 c7 -4 21 -39 31 -77 10
-38 46 -157 81 -265 36 -111 60 -204 57 -213 -6 -16 -26 -17 -206 -14 -110 2
-203 7 -207 11 -5 4 -2 22 5 40 7 18 51 137 97 266 47 129 89 241 95 248 13
15 28 16 47 4z"/>
<path d="M3412 13606 c-23 -74 -42 -137 -42 -140 0 -3 42 -6 94 -6 l93 0 -48
137 c-27 75 -50 138 -52 140 -2 1 -22 -57 -45 -131z"/>
<path d="M5580 13565 l0 -545 80 0 80 0 1 408 c1 224 2 468 3 542 l1 135 -82
3 -83 3 0 -546z"/>
<path d="M6948 13744 c-3 -389 -5 -404 -48 -404 -9 0 -24 8 -33 18 -41 46
-457 723 -457 744 0 4 -52 8 -116 8 l-117 0 7 -46 c3 -26 6 -271 6 -545 l0
-499 70 0 70 0 1 373 c1 204 4 383 8 397 5 17 15 26 33 28 33 4 49 -18 258
-358 164 -267 216 -348 260 -408 l24 -32 108 0 108 0 0 544 0 545 -89 3 -89 3
-4 -371z"/>
<path d="M3480 11980 c0 -25 35 -66 44 -51 4 5 -3 16 -15 24 -13 10 -17 17
-10 22 12 7 5 25 -10 25 -5 0 -9 -9 -9 -20z"/>
<path d="M3211 11817 c-6 -8 -8 -17 -4 -20 12 -13 22 -7 20 13 -2 24 -1 24
-16 7z"/>
<path d="M3276 11343 c-6 -14 -5 -15 5 -6 7 7 10 15 7 18 -3 3 -9 -2 -12 -12z"/>
<path d="M3395 11780 c3 -5 13 -10 21 -10 8 0 12 5 9 10 -3 6 -13 10 -21 10
-8 0 -12 -4 -9 -10z"/>
<path d="M3827 11858 c-5 -19 7 -25 18 -8 3 5 12 7 20 3 8 -3 15 -1 15 5 0 5
-11 12 -24 14 -18 4 -26 0 -29 -14z"/>
<path d="M3290 11739 c0 -5 5 -7 10 -4 6 3 10 8 10 11 0 2 -4 4 -10 4 -5 0
-10 -5 -10 -11z"/>
<path d="M2216 10431 c-4 -5 -2 -12 3 -15 5 -4 12 -2 15 3 4 5 2 12 -3 15 -5
4 -12 2 -15 -3z"/>
<path d="M1393 7213 c-18 -7 -16 -23 3 -23 26 0 176 -75 218 -108 39 -32 51
-33 111 -12 17 6 14 11 -25 39 -107 78 -251 127 -307 104z m175 -58 c-3 -3 -9
2 -12 12 -6 14 -5 15 5 6 7 -7 10 -15 7 -18z"/>
<path d="M4084 7234 c-18 -14 -18 -15 4 -4 12 6 22 13 22 15 0 8 -5 6 -26 -11z"/>
<path d="M3660 7232 c0 -11 49 -57 77 -71 12 -6 48 -10 80 -9 43 1 48 2 18 5
-84 7 -106 15 -140 49 -19 19 -35 31 -35 26z"/>
<path d="M3950 7186 c-66 -18 -81 -27 -35 -20 22 3 53 12 70 19 38 17 24 17
-35 1z"/>
<path d="M4501 7331 c-8 -5 20 -7 71 -4 67 5 93 2 118 -11 18 -9 35 -14 37
-12 2 2 -12 11 -31 20 -37 17 -171 22 -195 7z"/>
<path d="M4745 7293 c6 -6 28 -20 50 -32 22 -13 31 -15 20 -6 -22 18 -86 53
-70 38z"/>
<path d="M4840 7236 c0 -3 9 -10 20 -16 11 -6 20 -8 20 -6 0 3 -9 10 -20 16
-11 6 -20 8 -20 6z"/>
<path d="M4998 7173 c7 -3 16 -2 19 1 4 3 -2 6 -13 5 -11 0 -14 -3 -6 -6z"/>
<path d="M4595 6977 c-20 -17 -27 -32 -27 -60 0 -48 26 -89 54 -85 51 8 80
107 42 149 -22 25 -37 24 -69 -4z"/>
<path d="M7068 5343 c7 -3 16 -2 19 1 4 3 -2 6 -13 5 -11 0 -14 -3 -6 -6z"/>
<path d="M3041 4374 c0 -11 3 -14 6 -6 3 7 2 16 -1 19 -3 4 -6 -2 -5 -13z"/>
<path d="M6058 4603 c7 -3 16 -2 19 1 4 3 -2 6 -13 5 -11 0 -14 -3 -6 -6z"/>
<path d="M3441 3264 c0 -11 3 -14 6 -6 3 7 2 16 -1 19 -3 4 -6 -2 -5 -13z"/>
<path d="M9241 3234 c0 -11 3 -14 6 -6 3 7 2 16 -1 19 -3 4 -6 -2 -5 -13z"/>
<path d="M9283 3085 c-3 -9 -3 -18 -1 -21 3 -3 8 4 11 16 6 23 -1 27 -10 5z"/>
<path d="M4462 2166 c7 -8 15 -12 17 -11 5 6 -10 25 -20 25 -5 0 -4 -6 3 -14z"/>
<path d="M8020 2106 c0 -2 7 -7 16 -10 8 -3 12 -2 9 4 -6 10 -25 14 -25 6z"/>
<path d="M7928 2063 c7 -3 16 -2 19 1 4 3 -2 6 -13 5 -11 0 -14 -3 -6 -6z"/>
<path d="M4868 2033 c7 -3 16 -2 19 1 4 3 -2 6 -13 5 -11 0 -14 -3 -6 -6z"/>
<path d="M7615 2000 c-7 -12 2 -12 30 0 19 8 19 9 -2 9 -12 1 -25 -3 -28 -9z"/>
<path d="M7688 1993 c7 -3 16 -2 19 1 4 3 -2 6 -13 5 -11 0 -14 -3 -6 -6z"/>
<path d="M7550 1974 c-17 -10 -18 -13 -5 -8 11 3 25 7 32 7 7 0 10 4 7 9 -6
10 -4 10 -34 -8z"/>
<path d="M7418 1953 c7 -3 16 -2 19 1 4 3 -2 6 -13 5 -11 0 -14 -3 -6 -6z"/>
<path d="M5308 1943 c7 -3 16 -2 19 1 4 3 -2 6 -13 5 -11 0 -14 -3 -6 -6z"/>
<path d="M5820 1886 c0 -2 14 -6 30 -8 17 -3 30 -1 30 4 0 4 -13 8 -30 8 -16
0 -30 -2 -30 -4z"/>
<path d="M5928 1873 c7 -3 16 -2 19 1 4 3 -2 6 -13 5 -11 0 -14 -3 -6 -6z"/>
<path d="M6770 1870 c0 -5 7 -10 16 -10 8 0 12 5 9 10 -3 6 -10 10 -16 10 -5
0 -9 -4 -9 -10z"/>
<path d="M6948 1873 c7 -3 16 -2 19 1 4 3 -2 6 -13 5 -11 0 -14 -3 -6 -6z"/>
<path d="M9150 4127 c-61 -31 -9 -78 65 -58 60 16 72 27 59 48 -14 22 -89 29
-124 10z"/>
<path d="M5909 3934 c-13 -14 -17 -23 -9 -19 13 5 46 45 37 45 -2 0 -14 -11
-28 -26z"/>
<path d="M9629 3520 c-84 -14 -120 -52 -63 -66 39 -10 178 3 218 20 93 39 -13
70 -155 46z"/>
<path d="M2958 3273 c-52 -8 -27 -49 35 -60 28 -4 37 -1 50 18 29 41 0 55 -85
42z"/>
<path d="M2972 2915 c-75 -33 -45 -81 51 -79 104 2 165 42 125 82 -17 17 -135
15 -176 -3z"/>
<path d="M9478 2573 c6 -2 18 -2 25 0 6 3 1 5 -13 5 -14 0 -19 -2 -12 -5z"/>
<path d="M3310 2585 c-76 -23 -94 -30 -115 -42 -17 -11 -18 -14 -5 -23 19 -14
101 -6 165 15 58 20 73 31 60 44 -18 17 -60 20 -105 6z"/>
<path d="M8355 2020 l-20 -22 28 -24 c33 -28 97 -33 117 -8 11 13 9 19 -11 40
-36 35 -89 42 -114 14z"/>
<path d="M7170 5160 c0 -13 11 -13 30 0 12 8 11 10 -7 10 -13 0 -23 -4 -23
-10z"/>
<path d="M10171 3304 c0 -11 3 -14 6 -6 3 7 2 16 -1 19 -3 4 -6 -2 -5 -13z"/>
<path d="M10160 3240 c0 -16 2 -30 4 -30 2 0 6 14 8 30 3 17 1 30 -4 30 -4 0
-8 -13 -8 -30z"/>
<path d="M9999 2693 c-13 -16 -12 -17 4 -4 9 7 17 15 17 17 0 8 -8 3 -21 -13z"/>
</g>
</svg>
